<svg width="24" height="24" viewBox="0 0 24 24" fill="none" xmlns="http://www.w3.org/2000/svg">
<path d="M20.2098 9.55541C19.9161 9.2633 19.4412 9.2646 19.1491 9.55826L10.1333 18.6228C8.96366 19.7925 7.06393 19.7925 5.89206 18.6212C4.72108 17.4496 4.72108 15.5499 5.8922 14.3787L15.1748 5.04736C15.9051 4.31713 17.0924 4.31713 17.8247 5.04894C18.5569 5.78111 18.5569 6.96823 17.8246 7.7006L10.1348 15.3903C10.1343 15.3908 10.1338 15.3914 10.1333 15.3919C9.84039 15.6832 9.36694 15.6828 9.07458 15.3905C8.78173 15.0976 8.78173 14.623 9.07458 14.3301L12.7864 10.6176C13.0792 10.3246 13.0792 9.84974 12.7863 9.55689C12.4934 9.26404 12.0185 9.26407 11.7256 9.55699L8.01385 13.2695C7.13526 14.1481 7.13526 15.5725 8.01392 16.4511C8.89254 17.3297 10.3169 17.3297 11.1956 16.4511C11.1966 16.4501 11.1974 16.449 11.1984 16.448L18.8852 8.7612C20.2033 7.44305 20.2033 5.30618 18.8852 3.98803C17.5669 2.67066 15.4301 2.67066 14.1128 3.98803L4.83013 13.3195C3.07464 15.075 3.07464 17.9242 4.8314 19.6819C6.58932 21.4389 9.43859 21.4389 11.1955 19.682L20.2126 10.6161C20.5047 10.3224 20.5034 9.84752 20.2098 9.55541Z" fill="#25282B"/>
</svg>
