<svg width="16" height="16" viewBox="0 0 16 16" fill="none" xmlns="http://www.w3.org/2000/svg">
<path fill-rule="evenodd" clip-rule="evenodd" d="M12.5 6H12V4C12 1.794 10.206 0 8 0C5.794 0 4 1.794 4 4V6H3.5C2.67333 6 2 6.67267 2 7.5V14.5C2 15.3273 2.67333 16 3.5 16H12.5C13.3267 16 14 15.3273 14 14.5V7.5C14 6.67267 13.3267 6 12.5 6ZM5.33333 4C5.33333 2.52933 6.52933 1.33333 8 1.33333C9.47067 1.33333 10.6667 2.52933 10.6667 4V6H5.33333V4ZM8.66667 12.6667V11.148C9.06333 10.9167 9.33333 10.4913 9.33333 10C9.33333 9.26467 8.73533 8.66667 8 8.66667C7.26467 8.66667 6.66667 9.26467 6.66667 10C6.66667 10.4913 6.93667 10.9167 7.33333 11.148V12.6667C7.33333 13.0347 7.63133 13.3333 8 13.3333C8.36867 13.3333 8.66667 13.0347 8.66667 12.6667Z" fill="#131416"/>
</svg>
