<svg width="180" height="180" viewBox="0 0 180 180" fill="none" xmlns="http://www.w3.org/2000/svg">
<path fill-rule="evenodd" clip-rule="evenodd" d="M179.85 89.925C179.85 139.589 139.59 179.85 89.925 179.85C40.2608 179.85 0 139.589 0 89.925C0 40.2608 40.2608 0 89.925 0C139.59 0 179.85 40.2608 179.85 89.925Z" fill="url(#paint0_linear)"/>
<path fill-rule="evenodd" clip-rule="evenodd" d="M125.696 50.5741C125.696 23.1544 103.307 15.1868 89.9246 15.1868C76.4281 15.1868 54.3151 22.1242 54.3151 50.5741C54.3151 78.4224 42.9185 76.9708 43.8226 92.7681C45.2509 117.72 66.7279 123.528 90.0058 123.528C113.283 123.528 134.76 117.72 136.188 92.7681C137.092 76.9708 125.696 78.4224 125.696 50.5741Z" fill="#2F323E"/>
<path fill-rule="evenodd" clip-rule="evenodd" d="M125.697 50.5741C125.697 37.5719 120.662 28.9458 113.941 23.4673C118.292 28.835 121.206 36.193 121.206 46.0826C121.206 73.9315 129.628 74.1276 128.724 89.925C127.296 114.877 108.793 119.037 85.5154 119.037C71.7053 119.037 58.5289 116.993 49.7969 110.119C58.0086 120.626 73.5573 123.528 90.0069 123.528C113.284 123.528 134.761 117.72 136.189 92.7682C137.093 76.9708 125.697 78.4225 125.697 50.5741Z" fill="#1B1D25"/>
<path fill-rule="evenodd" clip-rule="evenodd" d="M119.573 54.9652C119.573 72.8148 106.299 87.2844 89.9242 87.2844C73.5496 87.2844 60.2754 72.8148 60.2754 54.9652C60.2754 37.116 73.5496 22.646 89.9242 22.646C106.299 22.646 119.573 37.116 119.573 54.9652Z" fill="#FFE7C0"/>
<path fill-rule="evenodd" clip-rule="evenodd" d="M96.4692 100.249L90.0373 106.236L83.3809 100.249V84.1255H96.4692V100.249Z" fill="#F5D9AB"/>
<path fill-rule="evenodd" clip-rule="evenodd" d="M107.595 29.012L83.444 42.4132C87.0831 59.3274 111.621 64.6573 111.621 64.6573C106.534 75.5229 95.7482 82.7929 85.4344 82.7929C78.8134 82.7929 72.7001 80.4255 67.7656 76.4269C73.1961 83.0856 81.1094 87.2844 89.9258 87.2844C106.3 87.2844 119.575 72.8148 119.575 54.9652C119.575 44.3335 114.864 34.9021 107.595 29.012Z" fill="#F5D9AB"/>
<path fill-rule="evenodd" clip-rule="evenodd" d="M111.5 30.5992C103.573 21.9259 92.651 21.3559 84.8383 22.6459C76.8245 23.9688 62.2445 30.7486 60.168 50.0531C60.168 50.0531 74.0827 50.4431 83.4436 42.4132C88.7691 51.8881 99.2046 61.7962 119.574 61.7962C119.574 61.7962 123.703 43.9533 111.5 30.5992Z" fill="#2F323E"/>
<path fill-rule="evenodd" clip-rule="evenodd" d="M121.852 102.347C114.166 100.512 95.8122 94.4138 95.8122 94.4138L89.839 105.636L84.3146 94.4138C84.3146 94.4138 63.3597 100.619 55.9604 103.391C49.2609 105.901 45.1586 136.974 42.7279 152.227C42.0451 156.509 51.1726 162.687 51.1726 162.687H127.182C127.182 162.687 137.507 155.162 136.83 151.433C134.05 136.119 131.802 104.723 121.852 102.347Z" fill="#6063EB"/>
<path fill-rule="evenodd" clip-rule="evenodd" d="M83.38 92.1685L76.4277 97.107C76.4277 97.107 81.7321 99.6881 89.8972 105.636L83.38 92.1685Z" fill="#FFFFFE"/>
<path fill-rule="evenodd" clip-rule="evenodd" d="M96.5729 92.1685L103.307 97.107C103.307 97.107 97.6677 99.6881 89.8379 105.636L96.5729 92.1685Z" fill="#FFFFFE"/>
<path fill-rule="evenodd" clip-rule="evenodd" d="M55.8876 53.4362C55.8697 52.8132 55.5505 38.0581 65.2799 28.0383C70.9573 22.1912 78.8805 19.2268 88.829 19.2268C106.972 19.2268 115.569 28.5388 119.585 36.3501C123.918 44.7774 123.968 53.0677 123.968 53.4165H122.621C122.621 53.3343 122.565 45.0633 118.365 36.9234C112.768 26.0744 102.83 20.5734 88.829 20.5734C79.258 20.5734 71.6603 23.4005 66.2459 28.9764C56.9097 38.5914 57.2298 53.2495 57.2338 53.3967L55.8876 53.4362Z" fill="#F8F8FA"/>
<path fill-rule="evenodd" clip-rule="evenodd" d="M132.36 154.46C132.36 156.21 130.928 157.642 129.178 157.642H50.6713C48.9207 157.642 47.4883 156.21 47.4883 154.46V111.494C47.4883 109.743 48.9207 108.311 50.6713 108.311H129.178C130.928 108.311 132.36 109.743 132.36 111.494V154.46Z" fill="#FF9638"/>
<path fill-rule="evenodd" clip-rule="evenodd" d="M129.178 108.311H126.146C126.146 108.311 119.069 154.46 47.4883 154.46C47.4883 156.21 48.9207 157.642 50.6713 157.642H129.178C130.928 157.642 132.36 156.21 132.36 154.46V111.494C132.36 109.743 130.928 108.311 129.178 108.311Z" fill="#ED7C16"/>
<path fill-rule="evenodd" clip-rule="evenodd" d="M99.4382 132.976C99.4382 138.231 95.1793 142.49 89.9252 142.49C84.6711 142.49 80.4121 138.231 80.4121 132.976C80.4121 127.723 84.6711 123.463 89.9252 123.463C95.1793 123.463 99.4382 127.723 99.4382 132.976Z" fill="#464777"/>
<path fill-rule="evenodd" clip-rule="evenodd" d="M70.4375 158.877C70.4375 161.718 69.7758 159.688 68.9597 159.688H56.6852C55.8687 159.688 55.207 161.29 55.207 158.877V157.302C55.207 156.485 55.8687 155.824 56.6852 155.824H68.9597C69.7758 155.824 70.4375 156.485 70.4375 157.302V158.877Z" fill="#FFFFFE"/>
<path fill-rule="evenodd" clip-rule="evenodd" d="M124.642 159.745C124.642 160.561 123.981 160.391 123.164 160.391H110.89C110.074 160.391 109.412 160.618 109.412 159.802V157.302C109.412 156.485 110.074 155.824 110.89 155.824H123.164C123.981 155.824 124.642 156.485 124.642 157.302V159.745Z" fill="#FFFFFE"/>
<path fill-rule="evenodd" clip-rule="evenodd" d="M132.36 160.734C132.36 161.759 131.529 162.591 130.503 162.591H49.3453C48.3196 162.591 47.4883 161.759 47.4883 160.734C47.4883 159.708 48.3196 158.877 49.3453 158.877H130.503C131.529 158.877 132.36 159.708 132.36 160.734Z" fill="#ED7C16"/>
<path fill-rule="evenodd" clip-rule="evenodd" d="M81.267 83.1433C71.3302 83.1433 64.1325 80.6 59.8744 75.5838C54.6841 69.4701 55.8413 62.0016 55.8933 61.6865L57.2225 61.9047C57.2108 61.9756 56.1223 69.0975 60.9127 74.7264C64.905 79.4181 71.7535 81.7967 81.267 81.7967V83.1433Z" fill="#F8F8FA"/>
<path fill-rule="evenodd" clip-rule="evenodd" d="M60.0188 64.3574C55.1081 64.3574 51.127 60.3763 51.127 55.4656V54.4646C51.127 49.5539 55.1081 45.5732 60.0188 45.5732" fill="#FF9638"/>
<path fill-rule="evenodd" clip-rule="evenodd" d="M61.732 64.6501C61.732 65.7153 60.868 66.5794 59.8023 66.5794C58.7371 66.5794 57.873 65.7153 57.873 64.6501V45.2806C57.873 44.215 58.7371 43.3513 59.8023 43.3513C60.868 43.3513 61.732 44.215 61.732 45.2806V64.6501Z" fill="#F8F8FA"/>
<path fill-rule="evenodd" clip-rule="evenodd" d="M119.832 45.5732C124.742 45.5732 128.724 49.5539 128.724 54.4646V55.4656C128.724 60.3763 124.742 64.3574 119.832 64.3574" fill="#FF9638"/>
<path fill-rule="evenodd" clip-rule="evenodd" d="M124.053 46.6379C125.286 48.1641 126.028 50.1042 126.028 52.2193V53.2198C126.028 57.1906 123.424 60.5509 119.832 61.6929V64.3574C124.742 64.3574 128.724 60.3763 128.724 55.4656V54.4646C128.724 51.0818 126.834 48.1412 124.053 46.6379Z" fill="#ED7C16"/>
<path fill-rule="evenodd" clip-rule="evenodd" d="M118.117 45.2806C118.117 44.215 118.981 43.3513 120.047 43.3513C121.112 43.3513 121.976 44.215 121.976 45.2806V64.6501C121.976 65.7153 121.112 66.5794 120.047 66.5794C118.981 66.5794 118.117 65.7153 118.117 64.6501V45.2806Z" fill="#F8F8FA"/>
<path fill-rule="evenodd" clip-rule="evenodd" d="M86.5785 82.4701C86.5785 84.4385 84.9831 86.0342 83.0148 86.0342C81.0469 86.0342 79.4512 84.4385 79.4512 82.4701C79.4512 80.5023 81.0469 78.9065 83.0148 78.9065C84.9831 78.9065 86.5785 80.5023 86.5785 82.4701Z" fill="#F8F8FA"/>
<defs>
<linearGradient id="paint0_linear" x1="0" y1="0" x2="0" y2="179.85" gradientUnits="userSpaceOnUse">
<stop stop-color="#464777" stop-opacity="0.144777"/>
<stop offset="1" stop-color="#464777" stop-opacity="0.01"/>
</linearGradient>
</defs>
</svg>
