<svg width="28" height="28" viewBox="0 0 28 28" fill="none" xmlns="http://www.w3.org/2000/svg">
<path d="M24.028 6.97023C23.9265 6.93127 23.8289 6.91171 23.7351 6.91171C23.5243 6.91171 23.3489 6.98603 23.2082 7.13426L18.489 11.8419V9.9097C18.489 8.98057 18.1591 8.18635 17.4994 7.52661C16.8397 6.86696 16.0455 6.53711 15.1163 6.53711H6.87247C5.94355 6.53711 5.14916 6.86696 4.48938 7.52661C3.82985 8.18635 3.5 8.98057 3.5 9.9097V18.1537C3.5 19.0827 3.82985 19.8769 4.48942 20.5366C5.1492 21.1963 5.94359 21.5261 6.87251 21.5261H15.1164C16.0456 21.5261 16.8398 21.1963 17.4995 20.5366C18.1592 19.8769 18.489 19.0828 18.489 18.1537V16.2097L23.2083 20.929C23.3489 21.0771 23.5244 21.1514 23.7352 21.1514C23.829 21.1514 23.9266 21.1319 24.028 21.093C24.3327 20.9603 24.4848 20.73 24.4848 20.4022V7.66131C24.4847 7.33326 24.3325 7.103 24.028 6.97023Z" fill="#25282B"/>
</svg>
