<svg width="44" height="44" viewBox="0 0 44 44" fill="none" xmlns="http://www.w3.org/2000/svg">
<path fill-rule="evenodd" clip-rule="evenodd" d="M40.9091 7H2.72727C1.22455 7 0 8.22455 0 9.72727V34.2727C0 35.7782 1.22455 37 2.72727 37H40.9091C42.4145 37 43.6364 35.7782 43.6364 34.2727V9.72727C43.6364 8.22455 42.4145 7 40.9091 7ZM15 31.5455H6.81818C6.06545 31.5455 5.45455 30.9345 5.45455 30.1818C5.45455 29.4291 6.06545 28.8182 6.81818 28.8182H15C15.7527 28.8182 16.3636 29.4291 16.3636 30.1818C16.3636 30.9345 15.7527 31.5455 15 31.5455ZM29.3182 22.1364C30.2536 22.8918 31.4291 23.3636 32.7273 23.3636C35.7409 23.3636 38.1818 20.9227 38.1818 17.9091C38.1818 14.8955 35.7409 12.4545 32.7273 12.4545C31.4291 12.4545 30.2536 12.9264 29.3182 13.6818C28.3827 12.9264 27.2073 12.4545 25.9091 12.4545C22.8955 12.4545 20.4545 14.8955 20.4545 17.9091C20.4545 20.9227 22.8955 23.3636 25.9091 23.3636C27.2073 23.3636 28.3827 22.8918 29.3182 22.1364Z" fill="#6063EB"/>
</svg>
