<svg width="24" height="24" viewBox="0 0 24 24" fill="none" xmlns="http://www.w3.org/2000/svg">
<path fill-rule="evenodd" clip-rule="evenodd" d="M4.53609 15.0543C4.69418 15.023 4.85839 15.0459 5.00198 15.1193C5.78131 15.5178 6.60982 15.7594 7.47465 15.8425C7.05068 11.277 10.3554 7.3178 14.7433 6.75679C13.8169 3.95742 11.1659 2 8.15566 2C4.30375 2 1.17001 5.1123 1.17001 8.9378C1.17001 10.0489 1.42451 11.1099 1.92628 12.0915C2.00001 12.2355 2.02279 12.4003 1.99107 12.5589L1.36671 15.681L4.53609 15.0543ZM22.6002 21.8054L21.9758 18.6833C21.9441 18.5247 21.9669 18.36 22.0406 18.2159C22.5424 17.2343 22.7969 16.1733 22.7969 15.0622C22.7969 11.2367 19.6631 8.1244 15.8112 8.1244C11.9857 8.1244 8.87341 11.2367 8.87341 15.0622C8.87341 18.8877 11.9857 22 15.8112 22C16.9223 22 17.9833 21.7455 18.9649 21.2437C19.1085 21.1703 19.2726 21.1475 19.4308 21.1787L22.6002 21.8054Z" fill="#BDBEBF"/>
</svg>
