<svg width="10" height="10" viewBox="0 0 10 10" fill="none" xmlns="http://www.w3.org/2000/svg">
<path opacity="0.8" d="M6.64447 4.99616L9.73553 1.9051C10.0771 1.56357 10.0771 1.00986 9.73553 0.668865L9.32345 0.256788C8.98181 -0.0848489 8.42811 -0.0848489 8.08711 0.256788L4.99616 3.34774L1.9051 0.256148C1.56357 -0.0853825 1.00986 -0.0853825 0.668865 0.256148L0.256148 0.668225C-0.0853825 1.00986 -0.0853825 1.56357 0.256148 1.90456L3.34774 4.99616L0.256788 8.08711C-0.0848489 8.42875 -0.0848489 8.98245 0.256788 9.32345L0.668865 9.73553C1.0104 10.0771 1.5641 10.0771 1.9051 9.73553L4.99616 6.64447L8.08711 9.73553C8.42875 10.0771 8.98245 10.0771 9.32345 9.73553L9.73553 9.32345C10.0771 8.98181 10.0771 8.42811 9.73553 8.08711L6.64447 4.99616Z" fill="#25282B"/>
</svg>
