<svg width="28" height="28" viewBox="0 0 28 28" fill="none" xmlns="http://www.w3.org/2000/svg">
<rect opacity="0.1" width="28" height="28" rx="14" fill="#25282B"/>
<path opacity="0.8" d="M15.6445 13.9962L18.7355 10.9051C19.0771 10.5636 19.0771 10.0099 18.7355 9.66887L18.3235 9.25679C17.9818 8.91515 17.4281 8.91515 17.0871 9.25679L13.9962 12.3477L10.9051 9.25615C10.5636 8.91462 10.0099 8.91462 9.66887 9.25615L9.25615 9.66822C8.91462 10.0099 8.91462 10.5636 9.25615 10.9046L12.3477 13.9962L9.25679 17.0871C8.91515 17.4287 8.91515 17.9825 9.25679 18.3235L9.66887 18.7355C10.0104 19.0771 10.5641 19.0771 10.9051 18.7355L13.9962 15.6445L17.0871 18.7355C17.4287 19.0771 17.9825 19.0771 18.3235 18.7355L18.7355 18.3235C19.0771 17.9818 19.0771 17.4281 18.7355 17.0871L15.6445 13.9962Z" fill="#25282B"/>
</svg>
