<svg width="18" height="18" viewBox="0 0 18 18" fill="none" xmlns="http://www.w3.org/2000/svg">
<path d="M15.6159 8.89564C15.493 8.89182 15.331 8.90483 15.1493 8.94543V7.33932C15.1493 3.79338 12.2483 0.83456 8.70238 0.833374C5.14535 0.832222 2.25116 3.72572 2.25116 7.28246V8.90684C2.1832 8.89946 2.06138 8.88346 1.92632 8.88685C1.05674 8.88685 0.351822 9.59177 0.351822 10.4613V11.8181C0.351822 12.6877 1.05674 13.3926 1.92629 13.3926C2.00689 13.3946 2.10968 13.3901 2.25112 13.3726V14.9881C2.25112 15.6735 2.8067 16.2291 3.49206 16.2291H5.99254C5.96132 16.7198 6.3686 17.1839 6.88368 17.1806H9.5847C10.0763 17.1806 10.4748 16.7821 10.4748 16.2905V15.1798C10.4748 14.6883 10.0763 14.2898 9.5847 14.2898H6.88368C6.38269 14.2866 5.96593 14.7282 5.99254 15.2413H3.49209C3.35226 15.2413 3.2389 15.1279 3.2389 14.9881V13.8601C3.2389 13.8593 3.23986 13.8588 3.24058 13.8593C3.46493 14.0198 3.73281 14.1232 4.02294 14.1473C4.95906 14.2249 5.72719 13.4897 5.72719 12.5504V9.54044C5.72719 8.60113 4.95906 7.86592 4.02294 7.94359C3.73281 7.96766 3.46493 8.07101 3.24058 8.23152C3.23986 8.23201 3.2389 8.23152 3.2389 8.23066V7.33527C3.2389 4.359 5.59935 1.88957 8.57486 1.82253C11.6433 1.75339 14.1615 4.22937 14.1615 7.28242V8.33753C14.1615 8.33836 14.1607 8.33885 14.16 8.33846C13.9049 8.19431 13.6062 8.11881 13.2887 8.1386C12.4552 8.19052 11.815 8.90114 11.815 9.73631V12.7483C11.815 13.6195 12.5277 14.3556 13.3988 14.35C14.0945 14.3454 14.6843 13.887 14.8867 13.2566C15.0695 13.34 15.3581 13.4119 15.6159 13.4013C16.4855 13.4013 17.1904 12.6964 17.1904 11.8268V10.4701C17.1904 9.60056 16.4855 8.89564 15.6159 8.89564Z" fill="#6063EB"/>
</svg>
