<svg width="56" height="56" viewBox="0 0 56 56" fill="none" xmlns="http://www.w3.org/2000/svg">
<rect width="56" height="56" rx="12" fill="#464777"/>
<path fill-rule="evenodd" clip-rule="evenodd" d="M28.0048 19.8747H36.1206C37.0498 19.8756 37.8344 20.5651 37.9546 21.4865H18.3684H17.7514V19.7069C17.7527 18.685 18.5808 17.857 19.6026 17.8556H26.1535C26.2485 17.8527 26.3396 17.8936 26.4004 17.9667L28.0048 19.8747ZM17.7588 22.3628H37.9644C39.3387 22.3709 40.4487 23.4865 40.45 24.8607C40.4509 24.8747 40.4509 24.8887 40.45 24.9027L39.0159 35.6769C38.9984 37.0443 37.8855 38.144 36.518 38.1452H19.2151C17.8475 38.144 16.7346 37.0443 16.7171 35.6769L15.2732 24.9027C15.2722 24.8887 15.2722 24.8747 15.2732 24.8607C15.2745 23.4865 16.3846 22.3709 17.7588 22.3628Z" fill="white"/>
</svg>
