<svg width="42" height="40" viewBox="0 0 42 40" fill="none" xmlns="http://www.w3.org/2000/svg">
<path d="M41.2258 15.0067C41.0806 14.5228 40.6694 14.2082 40.1613 14.1598L26.7177 13.2889L21.7338 0.756602C21.5645 0.321118 21.1048 0.103295 20.6451 0.0791016C20.1613 0.0791016 19.6773 0.296924 19.4839 0.756602L14.5001 13.2889L1.14393 14.1598C0.635782 14.2083 0.224572 14.5228 0.0552175 15.0067C-0.0899438 15.4664 0.0552176 15.9985 0.442234 16.3131L10.7259 24.926L7.38715 37.9906C7.2661 38.4502 7.45965 38.9582 7.84683 39.2485C8.25804 39.5389 8.7903 39.5631 9.20167 39.297L20.6451 32.1114L31.9919 39.297C32.4274 39.5631 32.9597 39.5389 33.3709 39.2485C33.758 38.9582 33.9516 38.4743 33.8306 37.9906L30.4919 24.926L40.8628 16.3131C41.25 15.9985 41.3951 15.4664 41.2258 15.0067Z" fill="#FFDA2D"/>
<path d="M21.8549 38.7165C21.8549 39.3939 21.3227 39.9262 20.6452 39.9262C19.9677 39.9262 19.4355 39.3939 19.4355 38.7165C19.4355 38.039 19.9677 37.5068 20.6452 37.5068C21.3227 37.5068 21.8549 38.039 21.8549 38.7165Z" fill="#6063EB"/>
<circle cx="36.7528" cy="27.0123" r="1.20972" transform="rotate(-72.0017 36.7528 27.0123)" fill="#6063EB"/>
<circle cx="30.5998" cy="8.08056" r="1.20967" transform="rotate(-53.9987 30.5998 8.08056)" fill="#6063EB"/>
<circle cx="10.6897" cy="8.07959" r="1.20967" transform="rotate(-36.0013 10.6897 8.07959)" fill="#6063EB"/>
<circle cx="4.53799" cy="27.0155" r="1.20972" transform="rotate(-17.9983 4.53799 27.0155)" fill="#6063EB"/>
<path d="M28.7984 19.0469C28.6532 18.563 28.2177 18.2484 27.7339 18.2L23.3548 17.9339L21.7339 13.8452C21.5646 13.4097 21.1049 13.192 20.6452 13.1678C20.1614 13.1436 19.6774 13.3613 19.484 13.8452L17.863 17.9339L13.4839 18.2C13.0002 18.2485 12.5646 18.563 12.4194 19.0469C12.2502 19.5065 12.4194 20.0387 12.7824 20.3532L16.1696 23.1598L15.0809 27.3936C14.9599 27.8774 15.1534 28.3855 15.5406 28.6758C15.9518 28.9661 16.4841 28.9903 16.8954 28.7243L20.6454 26.3774L24.3229 28.7243C24.7341 28.9904 25.2664 28.9661 25.6777 28.6758C26.0647 28.3855 26.2584 27.8773 26.1374 27.3936L25.0487 23.1598L28.4116 20.3532C28.7984 20.0387 28.9435 19.5065 28.7984 19.0469Z" fill="#FCA603"/>
</svg>
