<svg width="16" height="14" viewBox="0 0 16 14" fill="none" xmlns="http://www.w3.org/2000/svg">
<path d="M11.09 1.16669C10.3729 1.16669 9.71543 1.39393 9.13592 1.84211C8.58033 2.27179 8.21043 2.81907 7.99266 3.21703C7.7749 2.81904 7.40499 2.27179 6.84941 1.84211C6.26989 1.39393 5.61243 1.16669 4.89532 1.16669C2.89412 1.16669 1.38499 2.80356 1.38499 4.9742C1.38499 7.31925 3.26774 8.9237 6.11797 11.3526C6.60198 11.7651 7.1506 12.2326 7.72082 12.7313C7.79598 12.7971 7.89252 12.8334 7.99266 12.8334C8.09281 12.8334 8.18935 12.7971 8.26451 12.7313C8.83478 12.2326 9.38337 11.7651 9.86767 11.3524C12.7176 8.9237 14.6003 7.31925 14.6003 4.9742C14.6003 2.80356 13.0912 1.16669 11.09 1.16669Z" stroke="#FF2034"/>
</svg>
