<svg width="151" height="151" viewBox="0 0 151 151" fill="none" xmlns="http://www.w3.org/2000/svg">
<path d="M75.5521 126.133C46.1895 126.133 22.3008 102.245 22.3008 72.8822C22.3008 43.5196 46.189 19.6309 75.5521 19.6309C104.915 19.6309 128.803 43.5191 128.803 72.8822C128.803 102.245 104.915 126.133 75.5521 126.133Z" fill="#4C4FBC"/>
<path fill-rule="evenodd" clip-rule="evenodd" d="M15.7793 72.8819C15.7793 105.841 42.5936 132.655 75.5523 132.655C108.511 132.655 135.325 105.841 135.325 72.8819C135.325 39.9228 108.511 13.1089 75.5523 13.1089C42.5932 13.1089 15.7793 39.9232 15.7793 72.8819ZM28.8228 72.8819C28.8228 47.115 49.7858 26.1524 75.5523 26.1524C101.319 26.1524 122.281 47.115 122.282 72.8819C122.282 98.6489 101.319 119.611 75.5523 119.611C49.7854 119.611 28.8228 98.6489 28.8228 72.8819Z" fill="#6063EB"/>
<path d="M70.6023 90.7495C68.9332 90.7495 67.2641 90.113 65.991 88.8391L53.1993 76.0474C50.6523 73.5004 50.6523 69.3713 53.1993 66.8243C55.7458 64.2774 59.8754 64.2774 62.4223 66.8243L70.6028 75.0043L88.6832 56.9239C91.2297 54.3769 95.3593 54.3769 97.9062 56.9239C100.453 59.4708 100.453 63.6 97.9062 66.1469L75.2141 88.8391C73.9401 90.1126 72.271 90.7495 70.6023 90.7495Z" fill="#F8F8FA"/>
<path d="M77.5 139C77.5 140.12 76.6201 141 75.5 141C74.3799 141 73.5 140.12 73.5 139C73.5 137.88 74.3799 137 75.5 137C76.6201 137 77.5 137.88 77.5 139Z" fill="#FF9638"/>
<path d="M25 127.5C25 128.34 24.3401 129 23.5 129C22.6599 129 22 128.34 22 127.5C22 126.66 22.6599 126 23.5 126C24.3401 126 25 126.66 25 127.5Z" fill="#FF9638"/>
<path d="M148 102C148 105.36 145.36 108 142 108C138.64 108 136 105.36 136 102C136 98.6396 138.64 96 142 96C145.36 96 148 98.6396 148 102Z" fill="#FF9638"/>
<path d="M105 51C105 52.1199 104.12 53 103 53C101.88 53 101 52.1199 101 51C101 49.8799 101.88 49 103 49C104.12 49 105 49.8799 105 51Z" fill="#FF9638"/>
<path d="M122 13C122 15.2397 120.24 17 118 17C115.76 17 114 15.2397 114 13C114 10.7597 115.76 9 118 9C120.24 9 122 10.7597 122 13Z" fill="#FF9638"/>
<path d="M24 27.5C24 30.0197 22.0203 32 19.5 32C16.9797 32 15 30.0197 15 27.5C15 24.9797 16.9797 23 19.5 23C22.0203 23 24 24.9797 24 27.5Z" fill="#FF9638"/>
<path d="M28 76C28 77.6798 26.6802 79 25 79C23.3198 79 22 77.6798 22 76C22 74.3198 23.3198 73 25 73C26.6802 73 28 74.3198 28 76Z" fill="#FF9638"/>
</svg>
