<svg width="36" height="36" viewBox="0 0 36 36" fill="none" xmlns="http://www.w3.org/2000/svg">
<circle opacity="0.1" cx="18" cy="18" r="18" fill="#6063EB"/>
<path fill-rule="evenodd" clip-rule="evenodd" d="M16.2349 10C16.9426 10 17.5427 10.5296 17.6301 11.2318C17.6365 11.2826 19.0559 22.6781 19.0547 22.7293C19.0505 22.9069 18.963 23.0041 18.8502 23.1295C18.8334 23.1481 18.8161 23.1673 18.7985 23.1875H11.4062C10.6308 23.1875 10 22.5567 10 21.7812V11.4062C10 10.6308 10.6308 10 11.4062 10H16.2349ZM15.1967 18.592C15.2479 18.8494 15.4997 19.0107 15.7483 18.9596C16.0019 18.9088 16.1667 18.6621 16.1158 18.408L15.1783 13.7205C15.1344 13.5017 14.9421 13.3438 14.7188 13.3438H13.75C13.5266 13.3438 13.3343 13.5017 13.2904 13.7205L12.3529 18.408C12.3021 18.6621 12.4669 18.9088 12.7205 18.9596C12.9773 19.0122 13.2218 18.8456 13.2721 18.592L13.5717 17.0938H14.8971L15.1967 18.592ZM24.5938 12.8438H18.7724L19.9862 22.5837C20.0077 22.9821 19.8988 23.3572 19.6388 23.6508L17.5832 26H24.5938C25.3692 26 26 25.3692 26 24.5938V14.2812C26 13.5058 25.3692 12.8438 24.5938 12.8438ZM24.5938 18.0312H24.4686C24.2018 18.887 23.7789 19.5566 23.3393 20.0844C23.5791 20.3036 23.8304 20.4954 24.0845 20.6893L24.0846 20.6893C24.1954 20.7739 24.3068 20.8589 24.418 20.9468C24.6198 21.1083 24.6528 21.4031 24.4907 21.6055C24.3294 21.8075 24.0335 21.8403 23.832 21.6782C23.717 21.5875 23.604 21.5009 23.4925 21.4155C23.2183 21.2056 22.9529 21.0024 22.6875 20.7588C22.358 21.0612 22.0528 21.3014 21.7122 21.5695L21.5742 21.6782C21.3727 21.8403 21.0768 21.8075 20.9155 21.6055C20.7534 21.4031 20.7864 21.1083 20.9883 20.9468L21.1375 20.8292L21.1375 20.8291L21.1376 20.8291C21.4471 20.5855 21.7386 20.356 22.0357 20.0844C21.5961 19.5566 21.2044 18.887 20.9377 18.0312H20.8125C20.5534 18.0312 20.3438 17.8216 20.3438 17.5625C20.3438 17.3034 20.5534 17.0938 20.8125 17.0938H22.2188V16.625C22.2188 16.3659 22.4284 16.1562 22.6875 16.1562C22.9466 16.1562 23.1562 16.3659 23.1562 16.625V17.0938H24.5938C24.8528 17.0938 25.0625 17.3034 25.0625 17.5625C25.0625 17.8216 24.8528 18.0312 24.5938 18.0312ZM14.3347 14.2812H14.1341L13.7592 16.1562H14.7096L14.3347 14.2812ZM21.9179 18.0312C22.1203 18.575 22.3896 19.0151 22.6875 19.3896C22.9854 19.0151 23.2859 18.5749 23.4883 18.0312H21.9179ZM15.5573 24.7682L15.4769 24.125H17.9416L16.3679 25.8574C15.8972 25.6381 15.611 25.1989 15.5573 24.7682Z" fill="#6063EB"/>
</svg>
