<svg width="36" height="48" viewBox="0 0 36 48" fill="none" xmlns="http://www.w3.org/2000/svg">
<path fill-rule="evenodd" clip-rule="evenodd" d="M31.5 18H30V12C30 5.382 24.618 0 18 0C11.382 0 6 5.382 6 12V18H4.5C2.02 18 0 20.018 0 22.5V43.5C0 45.982 2.02 48 4.5 48H31.5C33.98 48 36 45.982 36 43.5V22.5C36 20.018 33.98 18 31.5 18ZM10 12C10 7.588 13.588 4 18 4C22.412 4 26 7.588 26 12V18H10V12ZM20 38V33.444C21.19 32.75 22 31.474 22 30C22 27.794 20.206 26 18 26C15.794 26 14 27.794 14 30C14 31.474 14.81 32.75 16 33.444V38C16 39.104 16.894 40 18 40C19.106 40 20 39.104 20 38Z" fill="white"/>
</svg>
