<svg width="160" height="160" viewBox="0 0 160 160" fill="none" xmlns="http://www.w3.org/2000/svg">
<rect opacity="0.1" width="160" height="160" rx="80" fill="#464777"/>
<path d="M79.929 34.2852C66.2604 34.3019 55.1838 45.3784 55.167 59.0471V74.2852C55.167 75.3371 56.0198 76.19 57.0718 76.19H64.6909C65.7429 76.19 66.5957 75.3371 66.5957 74.2852V59.0471C66.5956 51.6832 72.5652 45.7137 79.929 45.7137C87.2927 45.7137 93.2623 51.6832 93.2623 59.0471V74.2852C93.2623 75.3371 94.1152 76.19 95.1672 76.19H102.786C103.838 76.19 104.691 75.3371 104.691 74.2852V59.0471C104.674 45.3784 93.5975 34.3019 79.929 34.2852Z" fill="#464777"/>
<path d="M57.0716 72.3809H102.786C108.046 72.3809 112.31 76.6448 112.31 81.9046V116.19C112.31 121.45 108.046 125.714 102.786 125.714H57.0716C51.8118 125.714 47.5479 121.45 47.5479 116.191V81.9048C47.5479 76.6448 51.8118 72.3809 57.0716 72.3809Z" fill="#6063EB"/>
<path d="M89.4529 93.3335C89.475 88.0737 85.2291 83.7918 79.9693 83.7696C74.7095 83.7475 70.4275 87.9934 70.4054 93.2532C70.39 96.8889 72.4459 100.216 75.7043 101.829L74.2338 112.114C74.0864 113.156 74.8114 114.12 75.853 114.267C75.9413 114.28 76.0304 114.286 76.1195 114.286H83.7386C84.7905 114.297 85.652 113.452 85.6625 112.401C85.6634 112.304 85.6571 112.207 85.6432 112.111L84.1727 101.825C87.3913 100.214 89.432 96.9323 89.4529 93.3335Z" fill="white"/>
</svg>
