<svg width="10" height="13" viewBox="0 0 10 13" fill="none" xmlns="http://www.w3.org/2000/svg">
<path fill-rule="evenodd" clip-rule="evenodd" d="M8.375 5H8V3.5C8 1.8455 6.6545 0.5 5 0.5C3.3455 0.5 2 1.8455 2 3.5V5H1.625C1.005 5 0.5 5.5045 0.5 6.125V11.375C0.5 11.9955 1.005 12.5 1.625 12.5H8.375C8.995 12.5 9.5 11.9955 9.5 11.375V6.125C9.5 5.5045 8.995 5 8.375 5ZM3 3.5C3 2.397 3.897 1.5 5 1.5C6.103 1.5 7 2.397 7 3.5V5H3V3.5ZM5.5 10V8.861C5.7975 8.6875 6 8.3685 6 8C6 7.4485 5.5515 7 5 7C4.4485 7 4 7.4485 4 8C4 8.3685 4.2025 8.6875 4.5 8.861V10C4.5 10.276 4.7235 10.5 5 10.5C5.2765 10.5 5.5 10.276 5.5 10Z" fill="#25282B"/>
</svg>
