<svg width="72" height="27" viewBox="0 0 72 27" fill="none" xmlns="http://www.w3.org/2000/svg">
<path fill-rule="evenodd" clip-rule="evenodd" d="M15.0357 20.7145V16.1716H5.59598V0.459473H0V20.7145H15.0357ZM24.6732 20.975C26.3313 20.975 27.8198 20.6277 29.1387 19.9333C30.4576 19.2388 31.4845 18.2743 32.2193 17.0397C32.9541 15.8051 33.3215 14.4065 33.3215 12.844C33.3215 11.2815 32.9541 9.88772 32.2193 8.66277C31.4845 7.43782 30.4576 6.48294 29.1387 5.79813C27.8198 5.11332 26.3313 4.77091 24.6732 4.77091C23.0151 4.77091 21.5314 5.11332 20.2219 5.79813C18.9124 6.48294 17.8855 7.44265 17.1412 8.67724C16.397 9.91184 16.0249 11.3008 16.0249 12.844C16.0249 14.4065 16.397 15.8051 17.1412 17.0397C17.8855 18.2743 18.9171 19.2388 20.236 19.9333C21.5549 20.6277 23.034 20.975 24.6732 20.975ZM22.3557 15.6074C22.9586 16.2729 23.7311 16.6057 24.6732 16.6057C25.6153 16.6057 26.3878 16.2729 26.9907 15.6074C27.5937 14.9418 27.8951 14.0207 27.8951 12.844C27.8951 11.6866 27.5937 10.7799 26.9907 10.124C26.3878 9.46815 25.6153 9.14021 24.6732 9.14021C23.7311 9.14021 22.9586 9.46815 22.3557 10.124C21.7527 10.7799 21.4513 11.6866 21.4513 12.844C21.4513 14.0207 21.7527 14.9418 22.3557 15.6074ZM43.2982 26.5885C46.1998 26.5885 48.4232 25.8603 49.9682 24.4039C51.5132 22.9474 52.2857 20.7628 52.2857 17.8499V5.03133H47.1702V6.94109C46.1527 5.4943 44.5512 4.77091 42.3656 4.77091C41.009 4.77091 39.756 5.08438 38.6066 5.71132C37.4573 6.33826 36.5435 7.22563 35.8652 8.37342C35.1869 9.5212 34.8477 10.8378 34.8477 12.3232C34.8477 13.8278 35.1869 15.154 35.8652 16.3018C36.5435 17.4496 37.4573 18.337 38.6066 18.9639C39.756 19.5909 41.009 19.9043 42.3656 19.9043C44.3628 19.9043 45.8795 19.287 46.9158 18.0524V18.5733C46.9158 19.8272 46.5861 20.7724 45.9266 21.409C45.2672 22.0456 44.2309 22.3639 42.8178 22.3639C41.8945 22.3639 40.9571 22.2144 40.0056 21.9154C39.0541 21.6164 38.2675 21.2064 37.6457 20.6856L35.6956 24.5341C36.6188 25.2092 37.7399 25.7204 39.0588 26.0677C40.3778 26.4149 41.7909 26.5885 43.2982 26.5885ZM41.2351 14.638C41.8757 15.236 42.6764 15.535 43.6374 15.535C44.5983 15.535 45.3944 15.236 46.0256 14.638C46.6568 14.04 46.9724 13.2684 46.9724 12.3232C46.9724 11.3779 46.6615 10.6111 46.0397 10.0228C45.4179 9.43439 44.6171 9.14021 43.6374 9.14021C42.6576 9.14021 41.8521 9.43439 41.2209 10.0228C40.5897 10.6111 40.2741 11.3779 40.2741 12.3232C40.2741 13.2684 40.5944 14.04 41.2351 14.638Z" fill="#131416"/>
<path d="M63.4286 21.3627C65.0719 21.3627 66.5472 21.0268 67.8543 20.3549C69.1615 19.683 70.1793 18.7498 70.9076 17.5553C71.6359 16.3609 72 15.0078 72 13.496C72 11.9843 71.6359 10.6358 70.9076 9.45068C70.1793 8.26554 69.1615 7.3417 67.8543 6.67914C66.5472 6.01658 65.0719 5.6853 63.4286 5.6853C61.7853 5.6853 60.3147 6.01658 59.0168 6.67914C57.719 7.3417 56.7012 8.27021 55.9636 9.46468C55.226 10.6592 54.8571 12.0029 54.8571 13.496C54.8571 15.0078 55.226 16.3609 55.9636 17.5553C56.7012 18.7498 57.7236 19.683 59.0308 20.3549C60.338 21.0268 61.8039 21.3627 63.4286 21.3627Z" fill="#DE7143"/>
</svg>
