<svg width="40" height="40" viewBox="0 0 40 40" fill="none" xmlns="http://www.w3.org/2000/svg">
<rect opacity="0.3" width="40" height="40" rx="17" fill="black"/>
<path d="M26.1255 20.2988C26.1255 19.9145 25.8316 19.6206 25.4474 19.6206C25.0631 19.6206 24.7692 19.9145 24.7692 20.2988C24.7692 22.9436 22.6217 25.0911 19.9768 25.0911C17.332 25.0911 15.1845 22.9436 15.1845 20.2988C15.1845 19.9145 14.8906 19.6206 14.5063 19.6206C14.122 19.6206 13.8281 19.9145 13.8281 20.2988C13.8281 23.4409 16.1791 26.0858 19.2987 26.4249V28.2333H16.8347C16.4504 28.2333 16.1565 28.5272 16.1565 28.9115C16.1565 29.2958 16.4504 29.5896 16.8347 29.5896H23.119C23.5033 29.5896 23.7972 29.2958 23.7972 28.9115C23.7972 28.5272 23.5033 28.2333 23.119 28.2333H20.655V26.4249C23.7745 26.0858 26.1255 23.4409 26.1255 20.2988Z" fill="white"/>
<path d="M19.9763 10.375C17.8966 10.375 16.2012 12.0704 16.2012 14.1501V20.2762C16.2012 22.3785 17.8966 24.0513 19.9763 24.0739C22.056 24.0739 23.7514 22.3785 23.7514 20.2988V14.1501C23.7514 12.0704 22.056 10.375 19.9763 10.375Z" fill="white"/>
<rect x="12.9141" y="11.5" width="22" height="2" rx="1" transform="rotate(45 12.9141 11.5)" fill="white"/>
</svg>
