<svg width="24" height="24" viewBox="0 0 24 24" fill="none" xmlns="http://www.w3.org/2000/svg">
<path fill-rule="evenodd" clip-rule="evenodd" d="M3.40985 18.4502H20.6545C20.9808 18.4502 21.2796 18.2301 21.3475 17.911C21.4147 17.595 21.2706 17.2832 20.9785 17.1482C20.9091 17.1033 20.3873 16.7383 19.8648 15.6343C18.9053 13.6069 18.7039 10.751 18.7039 8.71215C18.7039 8.7033 18.7037 8.69446 18.7034 8.68566C18.6892 5.01904 15.7019 2.04071 12.032 2.04071C8.35331 2.04071 5.36047 5.03346 5.36047 8.71215C5.36047 10.751 5.15906 13.6069 4.19953 15.6343C3.67708 16.7383 3.15524 17.1032 3.08591 17.1482C2.79375 17.2832 2.64974 17.595 2.71691 17.911C2.78476 18.2302 3.0836 18.4502 3.40985 18.4502ZM12.0322 21.9564C10.5801 21.9564 9.3292 21.0819 8.77644 19.8322H15.2879C14.7351 21.0819 13.4842 21.9564 12.0322 21.9564Z" fill="#BDBEBF"/>
</svg>
