<svg width="28" height="28" viewBox="0 0 28 28" fill="none" xmlns="http://www.w3.org/2000/svg">
<path d="M21.8349 16.9193C20.692 16.9193 19.5699 16.7405 18.5065 16.3891C17.9855 16.2114 17.3449 16.3744 17.0269 16.7011L14.928 18.2855C12.4939 16.9862 10.9946 15.4873 9.71297 13.0715L11.2508 11.0273C11.6503 10.6283 11.7936 10.0454 11.6219 9.49855C11.269 8.42959 11.0897 7.30798 11.0897 6.16465C11.0898 5.3387 10.4178 4.66675 9.59193 4.66675H6.16387C5.33797 4.66675 4.66602 5.3387 4.66602 6.1646C4.66602 15.6316 12.3679 23.3334 21.8349 23.3334C22.6608 23.3334 23.3327 22.6615 23.3327 21.8356V18.4171C23.3327 17.5912 22.6607 16.9193 21.8349 16.9193Z" fill="#25282B"/>
</svg>
