<svg width="147" height="167" viewBox="0 0 147 167" fill="none" xmlns="http://www.w3.org/2000/svg">
<path d="M129.167 167H57.8333C48 167 40 158.94 40 149.033V64.1C40 63.04 40.3414 62.0084 40.9727 61.16L70.1545 21.96C71.0731 20.7262 72.5144 20 74.0455 20H112.955C114.486 20 115.927 20.7262 116.845 21.96L146.027 61.16C146.659 62.0084 147 63.04 147 64.1V149.033C147 158.94 139 167 129.167 167Z" fill="#FF8659"/>
<path d="M146.036 61.16L117.127 21.96C116.217 20.7262 114.789 20 113.273 20H94V167H129.333C139.075 167 147 158.94 147 149.033V64.1C147 63.04 146.662 62.0084 146.036 61.16Z" fill="#FF6326"/>
<path d="M36.4822 145.708L-14.7075 94.5179C-21.7642 87.4612 -21.7642 75.9796 -14.7075 68.9229L45.7893 8.42624C46.5445 7.67105 47.5241 7.18141 48.5814 7.03004L97.4443 0.0496919C98.9823 -0.17012 100.534 0.347162 101.633 1.44589L129.554 29.3676C130.653 30.4663 131.17 32.0179 130.95 33.5559L123.97 82.4186C123.819 83.4759 123.329 84.4559 122.574 85.2107L62.0771 145.708C55.0204 152.764 43.5386 152.764 36.4822 145.708Z" fill="#FFF16B"/>
<path d="M123.035 83.2243L129.951 34.9357C130.169 33.4158 129.656 31.8825 128.568 30.7966L114.736 17L11 120.475L36.3578 145.77C43.3491 152.743 54.7243 152.743 61.7156 145.77L121.652 85.9836C122.4 85.2372 122.885 84.2691 123.035 83.2243Z" fill="#FFB454"/>
<path d="M38.4427 114.587C37.1678 113.333 36.6446 111.435 37.2537 109.639L60.4217 41.3053C61.2798 38.7737 64.0632 37.4053 66.6381 38.2493C69.214 39.0929 70.6046 41.8291 69.7465 44.361L46.5784 112.695C45.7203 115.226 42.937 116.595 40.362 115.751C39.6134 115.506 38.965 115.1 38.4427 114.587Z" fill="#FF7038"/>
<path fill-rule="evenodd" clip-rule="evenodd" d="M73.3885 67.3885C79.2398 61.5372 88.7602 61.5372 94.6115 67.3885C100.463 73.2395 100.463 82.7602 94.6115 88.6115C88.7602 94.4628 79.2398 94.4628 73.3885 88.6115C67.5372 82.7602 67.5372 73.2398 73.3885 67.3885ZM80.4628 81.5372C82.4132 83.4875 85.5868 83.4875 87.5372 81.5372C89.4878 79.5865 89.4875 76.4132 87.5372 74.4628C85.5868 72.5125 82.4132 72.5125 80.4628 74.4628C78.5125 76.4132 78.5125 79.5868 80.4628 81.5372Z" fill="#FF405C"/>
<path fill-rule="evenodd" clip-rule="evenodd" d="M13.3885 67.3885C19.2398 61.5372 28.7602 61.5372 34.6115 67.3885C40.4628 73.2395 40.4628 82.7602 34.6115 88.6115C28.7602 94.4628 19.2398 94.4628 13.3885 88.6115C7.53717 82.7602 7.53717 73.2398 13.3885 67.3885ZM20.4628 81.5372C22.4132 83.4875 25.5868 83.4875 27.5372 81.5372C29.4875 79.5865 29.4875 76.4132 27.5372 74.4628C25.5868 72.5125 22.4132 72.5125 20.4628 74.4628C18.5125 76.4132 18.5125 79.5868 20.4628 81.5372Z" fill="#FF7038"/>
<path d="M47.077 112.669L61 69L46.2725 84.3975L38.2404 109.59C37.6632 111.399 38.1591 113.313 39.3672 114.576C39.8621 115.093 40.4766 115.501 41.1857 115.748C43.6262 116.6 46.2638 115.22 47.077 112.669Z" fill="#FF405C"/>
<path d="M128.496 1.46434C126.544 -0.487992 123.378 -0.487992 121.425 1.46434L93.1413 29.7487L100.212 36.8197L128.496 8.53534C130.449 6.58301 130.449 3.41667 128.496 1.46434Z" fill="#00429B"/>
<path d="M128.496 8.53536C130.449 6.58302 130.449 3.41702 128.496 1.46436L96.6767 33.284L100.212 36.8197L128.496 8.53536Z" fill="#002659"/>
<path d="M103.103 43.7097C101.91 43.7097 100.716 43.2544 99.8064 42.344L86.6196 29.1572C84.7989 27.3368 84.7989 24.3847 86.6196 22.564C88.4401 20.7436 91.3921 20.7436 93.2129 22.564L106.4 35.7508C108.22 37.5712 108.22 40.5233 106.4 42.344C105.489 43.2544 104.296 43.7097 103.103 43.7097Z" fill="#FF8659"/>
<path d="M106.4 35.7508L99.8064 29.1576L93.2132 35.7508L99.8064 42.344C100.717 43.2544 101.91 43.7097 103.103 43.7097C104.296 43.7097 105.489 43.2544 106.399 42.344C108.22 40.5236 108.22 37.5715 106.4 35.7508Z" fill="#FF6326"/>
</svg>
