<svg width="18" height="18" viewBox="0 0 18 18" fill="none" xmlns="http://www.w3.org/2000/svg">
<path fill-rule="evenodd" clip-rule="evenodd" d="M12.6615 11.601L17.7802 16.7197C18.0735 17.013 18.0735 17.487 17.7803 17.7802C17.634 17.9265 17.442 18 17.25 18C17.058 18 16.866 17.9265 16.7197 17.7802L11.601 12.6615C10.3763 13.653 8.82 14.25 7.12501 14.25C3.19651 14.25 0 11.0535 0 7.12498C0 3.19648 3.19648 0 7.12498 0C11.0535 0 14.25 3.19651 14.25 7.12501C14.25 8.82 13.653 10.3763 12.6615 11.601ZM1.50001 7.12498C1.50001 10.227 4.023 12.75 7.12501 12.75C10.227 12.75 12.75 10.227 12.75 7.12498C12.75 4.02296 10.227 1.49998 7.12501 1.49998C4.023 1.49998 1.50001 4.02296 1.50001 7.12498Z" fill="#131416"/>
</svg>
