<svg width="341" height="243" viewBox="0 0 341 243" fill="none" xmlns="http://www.w3.org/2000/svg">
<path fill-rule="evenodd" clip-rule="evenodd" d="M1.50229 102.129C0.546523 102.124 0.177792 101.113 0.985453 100.702C1.2107 100.587 1.50152 100.473 1.87334 100.364C4.47529 99.6046 6.11221 100.55 8.17649 97.8281C10.2408 95.1064 12.5588 96.4434 15.98 95.9083C19.4012 95.3732 21.909 86.002 29.2945 85.8177C36.6791 85.6335 36.9082 94.5767 45.5148 96.276C45.5148 96.276 47.4263 96.8374 50.1717 94.643C52.9172 92.4486 55.5191 91.7994 58.388 92.2551C61.0678 92.6807 64.5631 96.9623 64.9935 101.483C65.0429 102.002 64.526 102.443 63.8812 102.44L1.50229 102.129Z" stroke="#FF9638"/>
<path fill-rule="evenodd" clip-rule="evenodd" d="M267.331 16.1797C267.083 16.1797 267.013 15.8335 267.245 15.7425C269.645 14.7911 275.284 12.3199 279.398 8.66212C284.759 3.89482 287.44 0.262485 295.259 3.89482C303.077 7.52639 304.51 13.9098 312.552 8.46088C320.593 3.01353 322.38 8.34599 325.73 10.5604C328.399 12.3238 336.312 14.8427 339.422 15.7957C339.636 15.8613 339.585 16.1797 339.362 16.1797H267.331Z" stroke="#FF9638" stroke-width="0.99"/>
<path opacity="0.2" fill-rule="evenodd" clip-rule="evenodd" d="M285.73 235.532C285.73 232.706 236.342 230.416 175.419 230.416C114.496 230.416 65.1084 232.706 65.1084 235.532C65.1084 238.358 114.496 240.649 175.419 240.649C236.342 240.649 285.73 238.358 285.73 235.532" fill="#464777" fill-opacity="0.481753"/>
<path fill-rule="evenodd" clip-rule="evenodd" d="M199.023 206.921L267.988 206.922C278.11 206.923 286.316 198.722 286.316 188.604L286.319 90.2204C286.319 80.1029 278.113 71.9006 267.991 71.9006L77.5904 71.896C67.4681 71.8952 59.2619 80.0975 59.2619 90.215L59.2588 188.599C59.2588 198.716 67.4642 206.919 77.5866 206.919L146.638 206.92L170.334 231.413C171.924 233.056 174.565 233.035 176.128 231.366L199.023 206.921Z" fill="white"/>
<path d="M267.988 206.922L267.988 206.422L267.988 206.422L267.988 206.922ZM199.023 206.921L199.023 206.421L198.806 206.421L198.658 206.579L199.023 206.921ZM286.316 188.604L285.816 188.604V188.604H286.316ZM286.319 90.2204L285.819 90.2203L285.819 90.2204L286.319 90.2204ZM267.991 71.9006L267.991 72.4006H267.991V71.9006ZM77.5904 71.896L77.5904 72.396L77.5904 72.396L77.5904 71.896ZM59.2619 90.215L59.7619 90.215V90.215H59.2619ZM59.2588 188.599L58.7588 188.599V188.599H59.2588ZM77.5866 206.919L77.5866 206.419H77.5866V206.919ZM146.638 206.92L146.998 206.572L146.85 206.42L146.638 206.42L146.638 206.92ZM170.334 231.413L170.693 231.065L170.693 231.065L170.334 231.413ZM176.128 231.366L175.763 231.024L175.763 231.024L176.128 231.366ZM267.988 206.422L199.023 206.421L199.023 207.421L267.988 207.422L267.988 206.422ZM285.816 188.604C285.816 198.445 277.834 206.423 267.988 206.422L267.988 207.422C278.386 207.423 286.816 198.998 286.816 188.604H285.816ZM285.819 90.2204L285.816 188.604L286.816 188.604L286.819 90.2204L285.819 90.2204ZM267.991 72.4006C277.837 72.4006 285.819 80.3792 285.819 90.2203L286.819 90.2204C286.819 79.8265 278.389 71.4006 267.991 71.4006V72.4006ZM77.5904 72.396L267.991 72.4006L267.991 71.4006L77.5905 71.396L77.5904 72.396ZM59.7619 90.215C59.7619 80.3738 67.744 72.3952 77.5904 72.396L77.5905 71.396C67.1922 71.3952 58.7619 79.8211 58.7619 90.215H59.7619ZM59.7588 188.599L59.7619 90.215L58.7619 90.215L58.7588 188.599L59.7588 188.599ZM77.5866 206.419C67.7402 206.419 59.7588 198.44 59.7588 188.599H58.7588C58.7588 198.993 67.1883 207.419 77.5866 207.419V206.419ZM146.638 206.42L77.5866 206.419L77.5866 207.419L146.638 207.42L146.638 206.42ZM146.279 207.268L169.974 231.76L170.693 231.065L146.998 206.572L146.279 207.268ZM169.974 231.76C171.763 233.609 174.735 233.585 176.493 231.708L175.763 231.024C174.395 232.484 172.084 232.503 170.693 231.065L169.974 231.76ZM176.493 231.708L199.388 207.263L198.658 206.579L175.763 231.024L176.493 231.708Z" fill="#F5F5F5"/>
<path fill-rule="evenodd" clip-rule="evenodd" d="M123.321 123.312C120.066 119.62 115.288 114.624 109.972 114.624C109.765 114.624 109.558 114.624 109.363 114.637C104.023 114.819 99.7076 117.548 97.0864 121.411C92.9285 127.552 93.7207 135.789 98.7433 141.236L123.222 167.752C123.368 167.91 123.624 167.91 123.783 167.752L148.263 141.237C153.298 135.791 154.091 127.553 149.921 121.412C147.301 117.55 142.985 114.82 137.645 114.637C137.439 114.624 137.243 114.624 137.036 114.624C131.611 114.624 126.588 119.499 123.321 123.312" fill="#EF3F3F"/>
<path fill-rule="evenodd" clip-rule="evenodd" d="M220.561 156.366V164.946H210.786V118.475H220.561V144.779L234.847 131.251H246.502L232.466 145.531L247.755 164.946H235.912L225.26 151.731L220.561 156.366ZM195.246 164.038C192.448 165.144 189.21 165.698 185.534 165.698C181.858 165.698 178.631 165.144 175.853 164.038C173.075 162.932 170.924 161.366 169.399 159.341C167.875 157.316 167.112 154.946 167.112 152.232C167.112 149.936 167.687 147.911 168.835 146.157C169.984 144.404 171.624 142.984 173.754 141.898C172.125 140.896 170.872 139.633 169.995 138.109C169.117 136.585 168.679 134.842 168.679 132.88C168.679 130.333 169.389 128.12 170.809 126.241C172.23 124.362 174.214 122.911 176.762 121.888C179.31 120.865 182.234 120.354 185.534 120.354C188.876 120.354 191.832 120.865 194.401 121.888C196.97 122.911 198.964 124.362 200.385 126.241C201.805 128.12 202.515 130.333 202.515 132.88C202.515 134.842 202.076 136.585 201.199 138.109C200.322 139.633 199.048 140.896 197.377 141.898C199.549 142.984 201.21 144.404 202.358 146.157C203.507 147.911 204.081 149.936 204.081 152.232C204.081 154.946 203.309 157.316 201.763 159.341C200.217 161.366 198.045 162.932 195.246 164.038ZM180.584 137.264C181.795 138.224 183.446 138.704 185.534 138.704C187.623 138.704 189.294 138.224 190.547 137.264C191.8 136.304 192.427 134.988 192.427 133.318C192.427 131.606 191.8 130.26 190.547 129.279C189.294 128.297 187.623 127.807 185.534 127.807C183.487 127.807 181.848 128.297 180.615 129.279C179.383 130.26 178.767 131.606 178.767 133.318C178.767 134.988 179.373 136.304 180.584 137.264ZM185.534 158.245C183.028 158.245 181.044 157.681 179.581 156.554C178.119 155.426 177.388 153.882 177.388 151.919C177.388 149.999 178.119 148.475 179.581 147.347C181.044 146.22 183.028 145.656 185.534 145.656C188.082 145.656 190.098 146.22 191.581 147.347C193.064 148.475 193.805 149.999 193.805 151.919C193.805 153.84 193.064 155.374 191.581 156.522C190.098 157.671 188.082 158.245 185.534 158.245Z" fill="#EF3F3F"/>
<path fill-rule="evenodd" clip-rule="evenodd" d="M267.44 225.06L267.934 230.212L269.54 233.229C270.279 234.615 270.015 236.322 268.892 237.42L268.366 237.935L256.899 223.954L262.646 219.246L267.44 225.06" fill="#0B0A0D"/>
<path fill-rule="evenodd" clip-rule="evenodd" d="M256.76 223.975L268.32 238.068L269.565 237.048L258.006 222.955L256.76 223.975" fill="#FFFFFE"/>
<path fill-rule="evenodd" clip-rule="evenodd" d="M262.646 219.246L268.822 213.933L273.469 219.483L267.44 225.06L262.646 219.246" fill="#FFFFFE"/>
<path fill-rule="evenodd" clip-rule="evenodd" d="M280.379 179.81L282.529 197.745L264.94 215.346L272.238 223.617L294.052 204.793L285.385 176.934L280.379 179.81" fill="#4C4FBC"/>
<path fill-rule="evenodd" clip-rule="evenodd" d="M309.43 229.128L314.181 231.189L317.599 231.242C319.17 231.268 320.537 232.325 320.956 233.838L321.152 234.547L303.363 237.814L302.02 230.508L309.43 229.128" fill="#0B0A0D"/>
<path fill-rule="evenodd" clip-rule="evenodd" d="M303.312 237.946L321.245 234.652L320.954 233.07L303.021 236.363L303.312 237.946" fill="#FFFFFE"/>
<path fill-rule="evenodd" clip-rule="evenodd" d="M302.02 230.508L300.355 222.536L307.465 221.157L309.43 229.128L302.02 230.508" fill="#FFFFFE"/>
<path fill-rule="evenodd" clip-rule="evenodd" d="M297.038 172.794L310.983 225.471L298.981 227.812L289.952 197.039C289.952 197.039 279.54 178.162 278.632 171.698L297.038 172.794" fill="#6063EB"/>
<path fill-rule="evenodd" clip-rule="evenodd" d="M319.485 130.829C321.008 132.439 320.94 134.98 319.327 136.504C317.716 138.028 315.173 137.957 313.648 136.346C312.124 134.736 312.195 132.195 313.806 130.671C315.417 129.147 317.96 129.218 319.485 130.829" fill="#B2716A"/>
<path fill-rule="evenodd" clip-rule="evenodd" d="M321.538 122.17V122.17C321.9 122.392 322.016 122.87 321.795 123.232L315.484 133.588C315.262 133.95 314.785 134.066 314.421 133.845C314.059 133.623 313.942 133.145 314.165 132.782L320.475 122.427C320.697 122.065 321.174 121.948 321.538 122.17" fill="#0A090B"/>
<path fill-rule="evenodd" clip-rule="evenodd" d="M310.652 143.204L314.602 135.199L318.552 137.089L315.307 145.158L310.652 143.204" fill="#B2716A"/>
<path fill-rule="evenodd" clip-rule="evenodd" d="M293.851 133.946C293.851 133.946 297.762 135.213 302.91 143.699L306.445 149.308L311.242 138.622L319.182 141.167L311.871 157.554C310.44 160.76 306.31 161.661 303.672 159.344L299.876 156.008L293.851 133.946" fill="#FF9638"/>
<path fill-rule="evenodd" clip-rule="evenodd" d="M276.142 185.459C276.142 185.459 281.35 188.011 281.329 187.743C281.308 187.476 280.554 181.299 280.554 181.299L276.142 185.459" fill="#3E377F"/>
<path fill-rule="evenodd" clip-rule="evenodd" d="M291.537 133.251C291.537 133.251 298.094 133.231 299.345 144.807C300.596 156.383 303.328 181.426 303.328 181.426L295.905 183.172L291.323 139.138L291.537 133.251" fill="#FF9638"/>
<path fill-rule="evenodd" clip-rule="evenodd" d="M282.521 133.431C282.521 133.431 285.05 132.18 289.45 132.732C293.85 133.284 295.778 138.747 296.095 142.474C296.411 146.201 297.578 174.441 297.578 174.441L282.33 174.37L282.521 133.431" fill="#FFFFFE"/>
<path fill-rule="evenodd" clip-rule="evenodd" d="M285.063 132.747C285.063 132.747 281.749 132.576 276.882 137.476C276.554 137.806 276.362 138.25 276.36 138.716L276.142 185.459C276.142 185.459 284.178 186.289 292.232 183.155L285.063 132.747" fill="#FF9638"/>
<path fill-rule="evenodd" clip-rule="evenodd" d="M257.217 185.487C255.537 184.039 255.349 181.504 256.798 179.824C258.246 178.144 260.783 177.957 262.463 179.405C264.144 180.852 264.331 183.387 262.883 185.067C261.435 186.746 258.898 186.934 257.217 185.487" fill="#B2716A"/>
<path fill-rule="evenodd" clip-rule="evenodd" d="M259.919 170.808L257.511 179.164L261.871 180.008L265.513 171.515L259.919 170.808" fill="#B2716A"/>
<path fill-rule="evenodd" clip-rule="evenodd" d="M280.976 134.184C280.976 134.184 263.539 144.442 256.143 175.844L266.543 177.279C266.543 177.279 271.996 156.007 282.541 147.264C282.541 147.264 286.215 139.775 280.976 134.184" fill="#FF9638"/>
<path d="M276.247 154.612C276.247 154.612 279.629 148.945 282.54 147.264" stroke="#ED7C16" stroke-width="0.744"/>
<path fill-rule="evenodd" clip-rule="evenodd" d="M285.408 132.729L285.444 123.625L291.974 123.654L291.939 132.758C291.93 134.561 290.462 136.016 288.659 136.008C286.855 136 285.4 134.532 285.408 132.729" fill="#B2716A"/>
<path fill-rule="evenodd" clip-rule="evenodd" d="M285.209 124.111C285.209 124.111 285.896 132.674 291.931 132.549L291.943 127.879L285.209 124.111" fill="#9C5C58"/>
<path fill-rule="evenodd" clip-rule="evenodd" d="M295.466 113.981C295.466 113.981 301.761 115.072 296.63 121.403L295.466 117.56V113.981" fill="#191B1F"/>
<path fill-rule="evenodd" clip-rule="evenodd" d="M290.791 130.444V130.444C294.289 130.444 297.152 128.335 297.152 124.838V117.866C297.152 116.344 295.905 115.099 294.382 115.099H287.199C285.676 115.099 284.43 116.344 284.43 117.866V123.855C284.43 127.352 287.841 130.444 290.791 130.444" fill="#B2716A"/>
<path fill-rule="evenodd" clip-rule="evenodd" d="M285.473 121.486V121.486C285.473 121.486 289.33 119.393 287.199 115.099H283.624C283.624 115.099 282.64 114.847 281.862 115.885C281.083 116.925 282.989 121.486 282.989 121.486H285.473" fill="#191B1F"/>
<path fill-rule="evenodd" clip-rule="evenodd" d="M281.631 122.29C281.631 123.547 282.651 124.567 283.909 124.567C285.166 124.567 286.186 123.547 286.186 122.29C286.186 121.032 285.166 120.014 283.909 120.014C282.651 120.014 281.631 121.032 281.631 122.29" fill="#B2716A"/>
<path fill-rule="evenodd" clip-rule="evenodd" d="M293.683 110.095C293.035 109.593 292.2 109.279 291.274 109.279C290.26 109.279 289.343 109.645 288.675 110.235C288.062 109.831 287.313 109.585 286.492 109.585C284.623 109.585 283.094 110.83 282.849 112.438C281.666 112.559 280.737 113.609 280.737 114.901C280.737 116.274 281.783 117.387 283.073 117.387C284.008 117.387 284.808 116.798 285.181 115.953C285.589 116.092 286.029 116.178 286.492 116.178C286.963 116.178 287.408 116.091 287.821 115.949C290.619 116.14 298.483 116.457 298.687 113.981C298.917 111.188 296.044 109.194 293.683 110.095" fill="#191B1F"/>
<path fill-rule="evenodd" clip-rule="evenodd" d="M286.84 118.982C286.84 118.982 286.39 123.619 287.362 125.017C288.335 126.416 289.403 124.843 293.11 124.445C296.819 124.048 297.325 125.744 297.325 125.744C297.325 125.744 296.81 130.647 291.974 130.647C288.219 130.647 284.428 129.589 285.443 123.625C286.457 117.661 283.624 115.099 283.624 115.099L286.84 118.982" fill="#191B1F"/>
<path fill-rule="evenodd" clip-rule="evenodd" d="M97.5732 49.1197L111.652 45.7642L111.076 49.5985L98.3632 56.0698L97.5732 49.1197" fill="#ED7C16"/>
<path fill-rule="evenodd" clip-rule="evenodd" d="M93.8036 30.5117C93.8036 30.5117 96.421 32.3229 97.356 36.9876C98.2909 41.6531 100.13 56.2773 100.13 56.2773L92.6504 59.6645L93.8036 30.5117" fill="#ED7C16"/>
<path fill-rule="evenodd" clip-rule="evenodd" d="M120.759 41.386C120.212 40.8139 119.706 40.3381 119.239 39.9426C117.38 38.3666 114.666 38.3342 112.774 39.8716L100.434 49.8997L88.4658 63.143C89.2635 64.5809 90.49 65.5324 91.8338 66.1585C95.3491 67.7954 99.52 67.0544 102.446 64.5108L116.325 51.7363L120.759 41.386" fill="#4C4FBC"/>
<path fill-rule="evenodd" clip-rule="evenodd" d="M123.359 62.0792L125.793 67.5752L130.479 66.9475L128.019 61.5449L123.359 62.0792" fill="#CF9A86"/>
<path fill-rule="evenodd" clip-rule="evenodd" d="M130.815 66.1895L135.445 68.501L138.308 68.9852C139.623 69.2073 140.635 70.2705 140.792 71.5952L140.865 72.2151L125.789 72.6854L125.322 66.366L130.815 66.1895" fill="#0A090C"/>
<path fill-rule="evenodd" clip-rule="evenodd" d="M125.73 72.7902L140.931 72.3161L140.901 71.3099C140.895 71.1109 140.729 70.9552 140.53 70.9606L125.689 71.424L125.73 72.7902" fill="#0A090C"/>
<path fill-rule="evenodd" clip-rule="evenodd" d="M122.838 64.5596L111.175 46.1327C110.13 43.128 111.758 39.8503 114.785 38.8665C117.885 37.8572 121.197 39.6576 122.036 42.8072L131.617 62.3267L122.838 64.5596" fill="#4C4FBC"/>
<path fill-rule="evenodd" clip-rule="evenodd" d="M81.8901 30.1115C81.5808 30.1362 81.2769 30.2063 80.9883 30.3189L80.8379 30.3775C78.263 31.3829 76.5188 34.1448 76.4023 36.7324L77.8765 61.5881C93.4203 61.4532 97.356 59.4061 97.356 59.4061L95.2632 34.2381C95.0742 31.8401 93.9734 29.5833 91.2403 29.3574L81.8901 30.1115" fill="#FF9638"/>
<path fill-rule="evenodd" clip-rule="evenodd" d="M101.654 33.48L105.145 34.7491C105.905 35.0251 106.792 34.7313 107.126 34.0937L111.308 26.0888C111.641 25.4504 111.296 24.7095 110.535 24.4327L107.045 23.1643C106.284 22.8883 105.398 23.182 105.064 23.8197L100.882 31.8245C100.549 32.4622 100.894 33.2039 101.654 33.48" fill="#1B1B1C"/>
<path fill-rule="evenodd" clip-rule="evenodd" d="M103.969 36.3159C105.366 37.4662 106.882 37.0668 108.032 35.6705C109.183 34.2734 109.533 32.409 108.136 31.2587C106.739 30.1083 104.674 30.308 103.523 31.7051C102.372 33.1014 102.572 35.1662 103.969 36.3159" fill="#CF9A86"/>
<path fill-rule="evenodd" clip-rule="evenodd" d="M103.941 39.2671L106.348 36.3449C106.977 35.5808 106.867 34.442 106.103 33.8136C105.339 33.1845 104.199 33.2947 103.571 34.0588L101.163 36.981C100.534 37.7444 100.644 38.8832 101.408 39.5123C102.172 40.1407 103.311 40.0305 103.941 39.2671" fill="#CF9A86"/>
<path fill-rule="evenodd" clip-rule="evenodd" d="M105.973 39.8025L101.486 35.181L93.3002 44.3069L83.1292 32.9365C80.8983 30.9981 78.5494 32.9496 77.5396 34.2179C76.5306 35.4871 76.6301 37.8426 77.8991 38.8518L90.7453 52.5654C91.6463 53.2817 92.8836 53.4051 93.9096 52.8816L105.973 39.8025" fill="#FF9638"/>
<path d="M93.2482 43.8159L92.9744 44.0677L93.2493 44.3665L93.5229 44.0666L93.2482 43.8159ZM94.7601 52.2479L94.496 51.9859L94.4823 51.9996L94.4702 52.0147L94.7601 52.2479ZM90.3731 52.3928L90.6469 52.1411L90.6317 52.1244L90.6145 52.1098L90.3731 52.3928ZM86.2261 36.7313L92.9744 44.0677L93.522 43.564L86.7737 36.2277L86.2261 36.7313ZM93.5229 44.0666L96.4882 40.8175L95.9387 40.316L92.9734 43.5651L93.5229 44.0666ZM97.5639 48.8933L94.496 51.9859L95.0242 52.5099L98.0921 49.4173L97.5639 48.8933ZM94.4702 52.0147C93.5028 53.2175 91.6917 53.2773 90.6469 52.1411L90.0993 52.6446C91.4521 54.116 93.7973 54.0385 95.05 52.481L94.4702 52.0147ZM90.6145 52.1098L78.4533 41.7409L77.9706 42.3071L90.1317 52.6759L90.6145 52.1098Z" fill="#ED7C16"/>
<path fill-rule="evenodd" clip-rule="evenodd" d="M107.783 92.9004L107.472 98.1804L112.186 98.5459L112.452 93.3507L107.783 92.9004" fill="#CF9A86"/>
<path fill-rule="evenodd" clip-rule="evenodd" d="M112.673 97.8745L116.716 101.102L119.415 102.173C120.655 102.666 121.422 103.917 121.299 105.245L121.241 105.867L105.703 103.028L107.264 96.8999L112.673 97.8745" fill="#0A090C"/>
<path fill-rule="evenodd" clip-rule="evenodd" d="M105.623 103.118L121.283 105.979L121.464 104.989C121.499 104.793 121.37 104.606 121.175 104.57L105.869 101.774L105.623 103.118" fill="#0A090C"/>
<path fill-rule="evenodd" clip-rule="evenodd" d="M96.1246 59.6641L112.011 60.3873C114.447 60.4975 116.451 62.3264 116.791 64.7405C116.875 65.3458 116.936 66.0374 116.963 66.8285C117.133 71.7192 115.04 95.2395 115.04 95.2395L105.854 93.6427L106.289 72.1348L87.8968 71.9081C84.0197 71.8603 80.4134 69.6389 78.8791 66.0791C78.2928 64.7182 78.0112 63.1923 78.373 61.5878L96.1246 59.6641" fill="#6063EB"/>
<path fill-rule="evenodd" clip-rule="evenodd" d="M84.3449 29.6447L84.9474 21.5288L90.9211 21.9714L90.3187 30.0873C90.1891 31.8314 88.7928 32.5353 87.1428 32.4127C85.4935 32.2901 84.2161 31.388 84.3449 29.6447" fill="#CF9A86"/>
<path fill-rule="evenodd" clip-rule="evenodd" d="M84.4854 19.9492C84.4854 19.9492 84.625 27.5408 90.5093 27.5177L90.7839 23.7396L84.4854 19.9492" fill="#C88273"/>
<path fill-rule="evenodd" clip-rule="evenodd" d="M84.1768 8.49228C84.1768 8.49228 82.0809 -0.0700386 75.5964 3.25466C70.7968 5.71502 72.3558 12.1678 80.2125 12.935L84.1768 8.49228" fill="#191B1F"/>
<path fill-rule="evenodd" clip-rule="evenodd" d="M80.898 14.3676C80.898 14.3676 78.3639 12.1609 80.7283 9.14157C83.0926 6.12144 85.8134 8.93185 85.8134 8.93185L80.898 14.3676" fill="#DE4953"/>
<path fill-rule="evenodd" clip-rule="evenodd" d="M96.4712 15.9528C96.1287 20.5713 92.1059 24.0371 87.4851 23.6948C82.8652 23.3517 79.397 19.3307 79.7402 14.7123C80.0827 10.0945 84.1056 6.62874 88.7263 6.97108C93.3463 7.31342 96.8145 11.3351 96.4712 15.9528" fill="#191B1F"/>
<path fill-rule="evenodd" clip-rule="evenodd" d="M89.4811 25.8984L89.2589 25.8845C85.9596 25.6694 83.4595 22.8227 83.674 19.5258L84.1129 12.7847C84.1684 11.9311 84.9059 11.2842 85.7591 11.3397L93.6212 11.8502C95.1463 11.9496 96.3018 13.2658 96.2031 14.7901L95.8436 20.3161C95.6292 23.6138 92.7804 26.1127 89.4811 25.8984" fill="#CF9A86"/>
<path fill-rule="evenodd" clip-rule="evenodd" d="M87.2714 14.2483C87.2714 14.2483 87.1048 17.6609 84.8145 17.866C82.5242 18.0718 84.0516 14.0093 84.0516 14.0093L87.2714 14.2483" fill="#191B1F"/>
<path fill-rule="evenodd" clip-rule="evenodd" d="M85.4482 18.0302C85.3757 19.142 84.4153 19.9848 83.3022 19.9131C82.1898 19.8406 81.3459 18.8807 81.4184 17.7681C81.4909 16.6555 82.4513 15.8127 83.5645 15.8852C84.6768 15.9577 85.52 16.9176 85.4482 18.0302" fill="#CF9A86"/>
<path fill-rule="evenodd" clip-rule="evenodd" d="M95.4428 12.7038C95.4428 12.7038 91.0736 17.2197 85.0666 15.2829C85.0666 15.2829 82.7478 14.8565 83.9195 11.346C85.0921 7.83471 94.7339 8.22485 95.4428 12.7038" fill="#191B1F"/>
<path fill-rule="evenodd" clip-rule="evenodd" d="M94.7529 12.4105C94.7529 12.4105 96.862 13.0636 96.1777 17.3559C96.1777 17.3559 99.0381 13.0944 97.827 10.85C95.8753 7.23228 91.4482 9.58008 91.4482 9.58008L94.7529 12.4105" fill="#191B1F"/>
<path fill-rule="evenodd" clip-rule="evenodd" d="M67.2054 195.271L64.2239 198.607L58.7393 203.41L76.406 229.568C77.7212 231.655 85.4615 238.647 90.4008 236.898C93.4733 235.811 96.4363 233.318 98.0516 228.123L67.2054 195.271" fill="#464777"/>
<path fill-rule="evenodd" clip-rule="evenodd" d="M59.2566 223.517L56.2605 235.215L49.874 234.298L52.8918 222.708L59.2566 223.517" fill="#FFFFFE"/>
<path fill-rule="evenodd" clip-rule="evenodd" d="M50.1633 233.676L44.9386 236.35L41.5421 236.877C39.9808 237.119 38.7658 238.36 38.5591 239.925L38.4619 240.658L57.1384 241.472L56.9525 233.989L50.1633 233.676" fill="#0B0A0D"/>
<path fill-rule="evenodd" clip-rule="evenodd" d="M57.2059 241.597L38.3828 240.777L38.453 239.161L57.2768 239.981L57.2059 241.597" fill="#FFFFFE"/>
<path fill-rule="evenodd" clip-rule="evenodd" d="M55.8195 199.938L48.5352 229.256L60.5799 229.568L69.2142 201.272C69.8799 197.257 66.8614 193.572 62.7923 193.432C59.2561 193.211 56.6249 196.258 55.8195 199.938" fill="#464777"/>
<path fill-rule="evenodd" clip-rule="evenodd" d="M73.6475 219.178L55.7471 216.532L57.8862 229.784L86.5755 238.082C88.8388 239.062 95.3679 238.975 98.4551 234.743C100.377 232.111 101.413 228.381 99.8112 223.184L73.6475 219.178" fill="#55568D"/>
<path fill-rule="evenodd" clip-rule="evenodd" d="M29.5377 235.722L18.8584 239.499L17.1436 233.282L27.7319 229.568L29.5377 235.722" fill="#FFFFFE"/>
<path fill-rule="evenodd" clip-rule="evenodd" d="M17.8289 233.298L13.2861 229.582L11.4447 226.681C10.5985 225.348 8.97391 224.732 7.45579 225.169L6.74609 225.373L13.4712 242.807L20.258 239.643L17.8289 233.298" fill="#0B0A0D"/>
<path fill-rule="evenodd" clip-rule="evenodd" d="M13.3838 242.919L6.60547 225.348L8.11511 224.766L14.8934 242.337L13.3838 242.919" fill="#FFFFFE"/>
<path fill-rule="evenodd" clip-rule="evenodd" d="M54.126 217.008L22.4375 230.245L26.8777 240.322L58.2608 229.812C62.2096 228.816 64.3803 224.577 62.8807 220.793C61.5084 217.331 57.5889 215.637 54.126 217.008" fill="#55568D"/>
<path fill-rule="evenodd" clip-rule="evenodd" d="M83.6172 184.409L90.3107 180.348L94.3767 190.77C95.1466 192.703 93.7928 194.192 91.8674 194.983C89.935 195.779 88.1469 195.569 87.34 193.64L83.6172 184.409" fill="#CF9A86"/>
<path fill-rule="evenodd" clip-rule="evenodd" d="M85.1289 188.158C85.1289 188.158 88.2824 187.024 88.9088 185.147C88.9088 185.147 88.3742 188.208 85.8903 190.047L85.1289 188.158" fill="#C88273"/>
<path fill-rule="evenodd" clip-rule="evenodd" d="M80.3448 174.665L79.2733 182.054C78.4942 185.122 81.0475 189.047 84.1447 188.387L84.9979 188.17C87.2866 187.588 88.77 185.377 88.4391 183.04L87.1863 174.185C86.8878 173.679 81.6654 171.636 80.3448 174.665" fill="#CF9A86"/>
<path fill-rule="evenodd" clip-rule="evenodd" d="M80.1196 178.636L78.2837 180.912C78.0353 181.22 78.0623 181.632 78.35 181.915L79.2425 182.432L80.1196 178.636" fill="#CF9A86"/>
<path fill-rule="evenodd" clip-rule="evenodd" d="M88.6104 181.383C88.6104 181.383 87.2681 185.12 92.4358 185.168L94.821 180.788C95.9433 179.086 96.3167 176.969 95.7266 175.017C95.2499 173.437 94.3126 172.127 92.0292 171.03C86.2229 168.238 80.0501 172.178 79.5996 174.569C79.5996 174.569 81.5374 175.609 85.5896 174.86L88.6104 181.383" fill="#0B0A0D"/>
<path fill-rule="evenodd" clip-rule="evenodd" d="M85.1908 173.383C85.1908 173.383 83.7375 177.421 87.3006 178.556L85.1908 173.383" fill="#0B0A0D"/>
<path fill-rule="evenodd" clip-rule="evenodd" d="M85.9331 177.219L85.751 178.68C85.6507 179.485 86.2023 180.224 87.0015 180.359L88.0298 180.532L87.6379 177.73L85.9331 177.219" fill="#0B0A0D"/>
<path fill-rule="evenodd" clip-rule="evenodd" d="M86.8755 179.222C86.2476 180.777 87.363 182.444 89.0408 182.459C89.9727 182.467 90.8528 181.878 91.2015 181.014C91.8287 179.459 90.714 177.793 89.037 177.778C88.1051 177.77 87.2242 178.358 86.8755 179.222" fill="#CF9A86"/>
<path fill-rule="evenodd" clip-rule="evenodd" d="M91.4151 169.095C97.5918 171.842 97.0325 176.657 95.9649 179.532L81.582 171.79C82.9798 169.776 86.2729 166.807 91.4151 169.095" fill="#DE4953"/>
<path fill-rule="evenodd" clip-rule="evenodd" d="M95.9655 179.532C95.8475 179.851 95.7179 180.153 95.5837 180.437L75.0165 169.499C74.728 169.347 74.6354 168.978 74.8167 168.706C74.9756 168.469 75.2872 168.391 75.5379 168.527L95.9655 179.532" fill="#DE4953"/>
<path fill-rule="evenodd" clip-rule="evenodd" d="M91.1965 189.376C91.1965 189.376 96.1605 188.46 99.6365 198.837C103.621 210.731 102.123 229.192 102.123 229.192C102.123 229.192 89.6491 230.569 81.8193 220.594C81.8193 220.594 85.8114 203.404 85.9749 195.248C85.9749 195.248 85.8114 189.702 91.1965 189.376" fill="#6063EB"/>
<path fill-rule="evenodd" clip-rule="evenodd" d="M87.8013 190.688L70.6823 203.973C68.382 205.743 68.1158 209.113 70.1107 211.221C71.7129 212.914 74.2855 213.244 76.2634 212.011L93.6239 201.191C96.4464 199.235 97.0049 195.291 94.8373 192.629C92.8216 190.153 90.3323 188.741 87.8013 190.688" fill="#6063EB"/>
<path fill-rule="evenodd" clip-rule="evenodd" d="M65.5908 188.817L60.289 181.925L56.3633 183.27L60.7711 190.473L65.5908 188.817" fill="#CF9A86"/>
<path fill-rule="evenodd" clip-rule="evenodd" d="M59.7487 175.483C57.4676 175.224 55.4735 178.385 55.4543 180.65C55.4342 182.915 57.2794 184.733 59.5759 184.71C61.8708 184.687 63.7476 182.831 63.7669 180.565C63.787 178.3 63.0271 175.855 59.7487 175.483" fill="#CF9A86"/>
<path fill-rule="evenodd" clip-rule="evenodd" d="M63.0143 168.598V168.598C62.5383 168.534 62.087 168.868 62.0122 169.342L60.3136 180.013C60.238 180.487 60.5658 180.927 61.0418 180.992C61.517 181.057 61.9682 180.722 62.0431 180.249L63.7425 169.577C63.8173 169.103 63.4894 168.663 63.0143 168.598" fill="#0B0A0D"/>
<path fill-rule="evenodd" clip-rule="evenodd" d="M79.0581 206.873L64.8527 185.341L56.7422 188.444L69.7504 210.581C70.9144 212.752 73.7131 213.422 75.7349 212.014C77.5678 210.738 79.541 208.569 79.0581 206.873" fill="#6063EB"/>
<path d="M84.8579 215.038L97.0461 202.856L96.5159 202.326L84.3277 214.508L84.8579 215.038ZM84.8579 215.038L97.0461 202.856L96.5159 202.326L84.3277 214.508L84.8579 215.038Z" fill="#4C4FBC"/>
<path fill-rule="evenodd" clip-rule="evenodd" d="M248.917 25.5137L249.514 25.176C251.488 24.0588 252.183 21.5522 251.065 19.5783L243.638 6.45996L236.519 10.4871L244.634 24.4042C245.556 26.0303 247.185 26.2192 248.917 25.5137" fill="#CF9A86"/>
<path fill-rule="evenodd" clip-rule="evenodd" d="M242.847 21.3394C242.847 21.3394 245.031 19.8644 244.861 17.0479C244.861 17.0479 246.657 20.3587 243.944 23.2223L242.847 21.3394" fill="#C88273"/>
<path fill-rule="evenodd" clip-rule="evenodd" d="M231.215 13.4871C233.633 17.7579 239.057 19.2599 243.329 16.8434C247.602 14.4262 249.105 9.00511 246.687 4.73436C244.27 0.464382 238.846 -1.03836 234.573 1.37883C230.301 3.79601 228.797 9.21638 231.215 13.4871" fill="#CF9A86"/>
<path fill-rule="evenodd" clip-rule="evenodd" d="M242.46 21.5869V21.5869C244.489 20.4396 245.204 17.8652 244.056 15.8381L239.862 8.43311L231.146 13.3646L234.562 19.3987C236.139 22.1829 239.676 23.1629 242.46 21.5869" fill="#CF9A86"/>
<path fill-rule="evenodd" clip-rule="evenodd" d="M232.419 15.0869L232.138 18.5311C232.129 19.0716 232.722 19.3939 233.215 19.1156L235.382 18.3777L232.419 15.0869" fill="#CF9A86"/>
<path fill-rule="evenodd" clip-rule="evenodd" d="M231.215 13.4871C233.633 17.7579 239.057 19.2599 243.329 16.8434C247.602 14.4262 249.105 9.00511 246.687 4.73436C244.27 0.464382 238.846 -1.03836 234.573 1.37883C230.301 3.79601 228.797 9.21638 231.215 13.4871" fill="#CF9A86"/>
<mask id="mask0" mask-type="alpha" maskUnits="userSpaceOnUse" x="230" y="0" width="18" height="18">
<path fill-rule="evenodd" clip-rule="evenodd" d="M231.215 13.4871C233.633 17.7579 239.057 19.2599 243.329 16.8434C247.602 14.4262 249.105 9.00511 246.687 4.73436C244.27 0.464382 238.846 -1.03836 234.573 1.37883C230.301 3.79601 228.797 9.21638 231.215 13.4871" fill="white"/>
</mask>
<g mask="url(#mask0)">
<path fill-rule="evenodd" clip-rule="evenodd" d="M240.096 12.9057C240.096 12.9057 236.999 13.2943 236.2 8.53315C236.2 8.53315 231.009 12.3066 228.727 11.0691C228.727 11.0691 227.226 -2.45639 238.474 -2.65763C249.722 -2.86041 251.33 9.19007 251.33 9.19007L245.377 15.2504L240.096 12.9057" fill="#191B1F"/>
</g>
<path fill-rule="evenodd" clip-rule="evenodd" d="M239.658 13.1316C240.323 14.3051 241.812 14.7176 242.987 14.0538C244.161 13.3891 244.574 11.8995 243.91 10.726C243.246 9.55248 241.755 9.13998 240.581 9.80384C239.406 10.4685 238.994 11.9581 239.658 13.1316" fill="#CF9A86"/>
<path fill-rule="evenodd" clip-rule="evenodd" d="M246.399 10.9136L248.303 14.7017C248.303 14.7017 244.819 17.8598 242.741 14.1928L245.357 13.2822L246.399 10.9136" fill="#191B1F"/>
<path fill-rule="evenodd" clip-rule="evenodd" d="M236.199 8.53317C236.199 8.53317 229.22 14.629 226.051 10.0706C223.519 6.42979 225.93 3.82755 229.666 4.21692C231.281 4.38501 232.005 3.2539 233.203 2.33252L236.199 8.53317" fill="#191B1F"/>
<path fill-rule="evenodd" clip-rule="evenodd" d="M219.792 67.6396C219.792 67.6396 216.349 69.4608 217.425 72.5727C218.501 75.6846 222.726 74.5466 222.726 74.5466L234.713 72.3252C234.713 72.3252 235.927 70.5788 234.713 69.8201C233.498 69.0614 219.792 67.6396 219.792 67.6396" fill="#171525"/>
<path fill-rule="evenodd" clip-rule="evenodd" d="M240.18 58.2556H217.617C215.256 58.2556 213.959 60.0938 213.608 62.4285C213.245 64.8457 214.059 67.0354 216.428 67.6445L235.717 72.6038C235.717 72.6038 256.05 76.7874 258.44 65.8896C260.83 54.9926 240.18 58.2556 240.18 58.2556" fill="#464777"/>
<path fill-rule="evenodd" clip-rule="evenodd" d="M242.365 29.2449C242.365 29.2449 243.711 25.3767 244.998 24.2795C245.915 23.4992 249.174 21.0442 250.862 20.6256C251.363 20.5014 251.89 20.6171 252.299 20.9332C254.108 22.3334 259.013 26.7799 260.76 34.9244C262.441 42.7673 260.409 66.0595 260.409 66.0595L240.517 57.7431C242.345 44.3664 239.294 41.6162 242.365 29.2449" fill="#6063EB"/>
<path fill-rule="evenodd" clip-rule="evenodd" d="M228.7 52.5883L222.701 49.6661C222.215 49.4294 221.64 49.4641 221.186 49.7579L218.156 51.7132C217.268 52.2869 217.308 53.5992 218.23 54.1173C218.701 54.3825 219.281 54.354 219.725 54.0448L221.186 53.024C221.186 53.024 225.471 56.1451 227.716 55.6671L228.7 52.5883" fill="#CF9A86"/>
<path fill-rule="evenodd" clip-rule="evenodd" d="M247.685 26.6226L244.33 46.9416L227.221 49.4181V55.7175L247.779 55.8401C249.711 55.9241 251.548 54.9989 252.632 53.3974L257.737 31.4639L247.685 26.6226" fill="#6063EB"/>
<path d="M244.33 46.9416L244.384 47.3127L244.656 47.2734L244.7 47.0027L244.33 46.9416ZM249.755 55.7337L249.753 55.3587L249.752 55.3587L249.755 55.7337ZM252.807 53.2756L253.173 53.3579L253.173 53.3578L252.807 53.2756ZM241.185 47.7753L244.384 47.3127L244.277 46.5704L241.078 47.0331L241.185 47.7753ZM244.7 47.0027L247.398 30.6622L246.658 30.54L243.96 46.8805L244.7 47.0027ZM240.519 56.1719L249.758 56.1087L249.752 55.3587L240.514 55.4219L240.519 56.1719ZM249.757 56.1087C251.398 56.0983 252.813 54.9575 253.173 53.3579L252.442 53.1933C252.158 54.4527 251.044 55.3505 249.753 55.3587L249.757 56.1087ZM253.173 53.3578L256.658 37.8462L255.927 37.6818L252.442 53.1934L253.173 53.3578Z" fill="#4C4FBC"/>
<path fill-rule="evenodd" clip-rule="evenodd" d="M211.369 58.392H235.468C236.207 58.392 236.806 57.7929 236.806 57.0543C236.806 56.3156 236.207 55.7173 235.468 55.7173H211.369C210.63 55.7173 210.03 56.3156 210.03 57.0543C210.03 57.7929 210.63 58.392 211.369 58.392" fill="#171525"/>
<path d="M200.561 38.2656L211.845 56.6725" stroke="#171525" stroke-width="1.3" stroke-linecap="round" stroke-linejoin="round"/>
</svg>
