<svg width="36" height="36" viewBox="0 0 36 36" fill="none" xmlns="http://www.w3.org/2000/svg">
<circle opacity="0.1" cx="18" cy="18" r="18" fill="#6063EB"/>
<path fill-rule="evenodd" clip-rule="evenodd" d="M23.3951 15.2595L23.7997 16.2192C23.7997 16.2192 26.0007 17.0018 26 17.1196V18.8389C26 18.9546 23.8042 19.8016 23.8042 19.8016L23.3995 20.7613C23.3995 20.7613 24.3896 22.8386 24.3044 22.9208L23.0609 24.1384C22.9771 24.2177 20.8146 23.2973 20.8146 23.2973L19.8364 23.6938C19.8364 23.6938 19.0353 25.8474 18.9145 25.8474H17.1581C17.0396 25.8474 16.1755 23.7012 16.1755 23.7012L15.1965 23.3032C15.1965 23.3032 13.0748 24.2711 12.991 24.1888L11.7467 22.9727C11.6645 22.8912 12.6042 20.771 12.6042 20.771L12.2003 19.8142C12.2003 19.8142 10 19.0309 10 18.9123V17.1915C10 17.0759 12.1951 16.2318 12.1951 16.2318L12.5982 15.2721C12.5982 15.2721 11.6089 13.1963 11.6949 13.1111L12.9377 11.8935C13.0207 11.8142 15.1861 12.7346 15.1861 12.7346L16.1636 12.3382C16.1636 12.3382 16.9625 10.1846 17.084 10.1846H18.8404C18.9575 10.1846 19.8238 12.3322 19.8238 12.3322L20.802 12.7272C20.802 12.7272 22.9223 11.7609 23.009 11.8446L24.2525 13.0592C24.334 13.1408 23.3951 15.2595 23.3951 15.2595ZM15.4366 18.0149C15.4366 19.3985 16.5882 20.5249 18 20.5249C19.414 20.5249 20.5634 19.3992 20.5634 18.0149C20.5634 16.6327 19.414 15.5063 18 15.5063C16.5882 15.5063 15.4366 16.6327 15.4366 18.0149Z" fill="#6063EB"/>
</svg>
