<svg width="21" height="22" viewBox="0 0 21 22" fill="none" xmlns="http://www.w3.org/2000/svg">
<path fill-rule="evenodd" clip-rule="evenodd" d="M13.7129 3.78125C13.7129 5.59074 15.1856 7.0625 16.9941 7.0625C18.8028 7.0625 20.2754 5.59074 20.2754 3.78125C20.2754 1.97176 18.8028 0.5 16.9941 0.5C15.1856 0.5 13.7129 1.97176 13.7129 3.78125ZM15.0254 3.78125C15.0254 2.6953 15.9091 1.8125 16.9941 1.8125C18.0791 1.8125 18.9629 2.6953 18.9629 3.78125C18.9629 4.8672 18.0791 5.75 16.9941 5.75C15.9091 5.75 15.0254 4.8672 15.0254 3.78125Z" fill="#25282B"/>
<path d="M16.9941 6.5625C15.4617 6.5625 14.2129 5.31451 14.2129 3.78125H13.2129C13.2129 5.86698 14.9096 7.5625 16.9941 7.5625V6.5625ZM19.7754 3.78125C19.7754 5.31452 18.5268 6.5625 16.9941 6.5625V7.5625C19.0789 7.5625 20.7754 5.86697 20.7754 3.78125H19.7754ZM16.9941 1C18.5268 1 19.7754 2.24798 19.7754 3.78125H20.7754C20.7754 1.69553 19.0789 0 16.9941 0V1ZM14.2129 3.78125C14.2129 2.24799 15.4617 1 16.9941 1V0C14.9096 0 13.2129 1.69552 13.2129 3.78125H14.2129ZM16.9941 1.3125C15.6332 1.3125 14.5254 2.419 14.5254 3.78125H15.5254C15.5254 2.9716 16.1851 2.3125 16.9941 2.3125V1.3125ZM19.4629 3.78125C19.4629 2.419 18.3551 1.3125 16.9941 1.3125V2.3125C17.8031 2.3125 18.4629 2.9716 18.4629 3.78125H19.4629ZM16.9941 6.25C18.3551 6.25 19.4629 5.1435 19.4629 3.78125H18.4629C18.4629 4.5909 17.8031 5.25 16.9941 5.25V6.25ZM14.5254 3.78125C14.5254 5.1435 15.6332 6.25 16.9941 6.25V5.25C16.1851 5.25 15.5254 4.5909 15.5254 3.78125H14.5254Z" fill="#25282B"/>
<path fill-rule="evenodd" clip-rule="evenodd" d="M13.7129 18.2188C13.7129 20.0282 15.1856 21.5 16.9941 21.5C18.8028 21.5 20.2754 20.0282 20.2754 18.2188C20.2754 16.4093 18.8028 14.9375 16.9941 14.9375C15.1856 14.9375 13.7129 16.4093 13.7129 18.2188ZM15.0254 18.2188C15.0254 17.1328 15.9091 16.25 16.9941 16.25C18.0791 16.25 18.9629 17.1328 18.9629 18.2188C18.9629 19.3047 18.0791 20.1875 16.9941 20.1875C15.9091 20.1875 15.0254 19.3047 15.0254 18.2188Z" fill="#25282B"/>
<path d="M16.9941 21C15.4617 21 14.2129 19.752 14.2129 18.2188H13.2129C13.2129 20.3045 14.9096 22 16.9941 22V21ZM19.7754 18.2188C19.7754 19.752 18.5268 21 16.9941 21V22C19.0789 22 20.7754 20.3045 20.7754 18.2188H19.7754ZM16.9941 15.4375C18.5268 15.4375 19.7754 16.6855 19.7754 18.2188H20.7754C20.7754 16.133 19.0789 14.4375 16.9941 14.4375V15.4375ZM14.2129 18.2188C14.2129 16.6855 15.4617 15.4375 16.9941 15.4375V14.4375C14.9096 14.4375 13.2129 16.133 13.2129 18.2188H14.2129ZM16.9941 15.75C15.6332 15.75 14.5254 16.8565 14.5254 18.2188H15.5254C15.5254 17.4091 16.1851 16.75 16.9941 16.75V15.75ZM19.4629 18.2188C19.4629 16.8565 18.3551 15.75 16.9941 15.75V16.75C17.8031 16.75 18.4629 17.4091 18.4629 18.2188H19.4629ZM16.9941 20.6875C18.3551 20.6875 19.4629 19.581 19.4629 18.2188H18.4629C18.4629 19.0284 17.8031 19.6875 16.9941 19.6875V20.6875ZM14.5254 18.2188C14.5254 19.581 15.6332 20.6875 16.9941 20.6875V19.6875C16.1851 19.6875 15.5254 19.0284 15.5254 18.2188H14.5254Z" fill="#25282B"/>
<path fill-rule="evenodd" clip-rule="evenodd" d="M1.02539 11C1.02539 12.8095 2.49795 14.2812 4.30664 14.2812C6.11533 14.2812 7.58789 12.8095 7.58789 11C7.58789 9.19051 6.11533 7.71875 4.30664 7.71875C2.49795 7.71875 1.02539 9.19051 1.02539 11ZM2.33789 11C2.33789 9.91405 3.22165 9.03125 4.30664 9.03125C5.39163 9.03125 6.27539 9.91405 6.27539 11C6.27539 12.086 5.39163 12.9688 4.30664 12.9688C3.22165 12.9688 2.33789 12.086 2.33789 11Z" fill="#25282B"/>
<path d="M4.30664 13.7812C2.77401 13.7812 1.52539 12.5333 1.52539 11H0.525391C0.525391 13.0857 2.22189 14.7812 4.30664 14.7812V13.7812ZM7.08789 11C7.08789 12.5333 5.83927 13.7812 4.30664 13.7812V14.7812C6.3914 14.7812 8.08789 13.0857 8.08789 11H7.08789ZM4.30664 8.21875C5.83927 8.21875 7.08789 9.46673 7.08789 11H8.08789C8.08789 8.91428 6.3914 7.21875 4.30664 7.21875V8.21875ZM1.52539 11C1.52539 9.46673 2.77401 8.21875 4.30664 8.21875V7.21875C2.22189 7.21875 0.525391 8.91428 0.525391 11H1.52539ZM4.30664 8.53125C2.94567 8.53125 1.83789 9.63775 1.83789 11H2.83789C2.83789 10.1903 3.49763 9.53125 4.30664 9.53125V8.53125ZM6.77539 11C6.77539 9.63775 5.66762 8.53125 4.30664 8.53125V9.53125C5.11565 9.53125 5.77539 10.1903 5.77539 11H6.77539ZM4.30664 13.4688C5.66762 13.4688 6.77539 12.3623 6.77539 11H5.77539C5.77539 11.8097 5.11565 12.4688 4.30664 12.4688V13.4688ZM1.83789 11C1.83789 12.3623 2.94567 13.4688 4.30664 13.4688V12.4688C3.49763 12.4688 2.83789 11.8097 2.83789 11H1.83789Z" fill="#25282B"/>
<path d="M6.59139 10.3617C6.36292 10.3617 6.14069 10.2427 6.02085 10.0311C5.84141 9.71607 5.95084 9.3152 6.26582 9.13592L14.385 4.50708C14.699 4.32604 15.1007 4.43627 15.2792 4.75221C15.4586 5.0672 15.3492 5.46791 15.0342 5.64735L6.91502 10.276C6.81265 10.3337 6.70162 10.3617 6.59139 10.3617V10.3617Z" fill="#25282B" stroke="#25282B"/>
<path d="M14.7097 17.579C14.5995 17.579 14.4883 17.551 14.3859 17.4925L6.26673 12.8636C5.95174 12.6844 5.84247 12.2835 6.02176 11.9685C6.20024 11.6527 6.6011 11.5433 6.91609 11.7235L15.0351 16.3522C15.3501 16.5316 15.4595 16.9324 15.2802 17.2473C15.1594 17.4599 14.9372 17.579 14.7097 17.579Z" fill="#25282B" stroke="#25282B"/>
</svg>
