<svg width="56" height="56" viewBox="0 0 56 56" fill="none" xmlns="http://www.w3.org/2000/svg">
<path fill-rule="evenodd" clip-rule="evenodd" d="M56 28C56 12.536 43.464 0 28 0C12.536 0 0 12.536 0 28C0 43.464 12.536 56 28 56C43.464 56 56 43.464 56 28Z" fill="#6063EB"/>
<mask id="mask0" mask-type="alpha" maskUnits="userSpaceOnUse" x="0" y="0" width="56" height="56">
<path fill-rule="evenodd" clip-rule="evenodd" d="M56 28C56 12.536 43.464 0 28 0C12.536 0 0 12.536 0 28C0 43.464 12.536 56 28 56C43.464 56 56 43.464 56 28Z" fill="white"/>
</mask>
<g mask="url(#mask0)">
<path fill-rule="evenodd" clip-rule="evenodd" d="M34.6124 22.5002H38.3125C38.692 22.5002 39 22.8082 39 23.1877V25.9377C39 26.3172 38.692 26.6252 38.3125 26.6252H17.6875C17.308 26.6252 17 26.3172 17 25.9377V23.1877C17 22.8082 17.308 22.5002 17.6875 22.5002H21.3876L23.9479 17.3797C24.1184 17.0401 24.5295 16.9053 24.8691 17.0731C25.2087 17.2436 25.3476 17.6561 25.1771 17.9957L22.9249 22.5002H33.0751L30.8215 17.9943C30.6524 17.6547 30.7899 17.2422 31.1295 17.0717C31.4691 16.904 31.8816 17.0401 32.0521 17.3797L34.6124 22.5002ZM18.87 28.0002L21.1456 37.1041C21.2226 37.4107 21.4976 37.6252 21.8125 37.6252H34.1875C34.5024 37.6252 34.7787 37.4107 34.8544 37.1041L37.1314 28.0002H18.87ZM25.25 34.1877C25.25 34.5672 24.942 34.8752 24.5625 34.8752C24.183 34.8752 23.875 34.5672 23.875 34.1877V30.0627C23.875 29.6832 24.183 29.3752 24.5625 29.3752C24.942 29.3752 25.25 29.6832 25.25 30.0627V34.1877ZM28 34.8752C28.3795 34.8752 28.6875 34.5672 28.6875 34.1877V30.0627C28.6875 29.6832 28.3795 29.3752 28 29.3752C27.6205 29.3752 27.3125 29.6832 27.3125 30.0627V34.1877C27.3125 34.5672 27.6205 34.8752 28 34.8752ZM32.125 34.1877C32.125 34.5672 31.817 34.8752 31.4375 34.8752C31.058 34.8752 30.75 34.5672 30.75 34.1877V30.0627C30.75 29.6832 31.058 29.3752 31.4375 29.3752C31.817 29.3752 32.125 29.6832 32.125 30.0627V34.1877Z" fill="white"/>
</g>
</svg>
