<svg width="40" height="40" viewBox="0 0 40 40" fill="none" xmlns="http://www.w3.org/2000/svg">
<rect opacity="0.3" width="40" height="40" rx="17" fill="black"/>
<path fill-rule="evenodd" clip-rule="evenodd" d="M26.1846 27.6883C26.4268 27.6781 26.6531 27.5671 26.8096 27.3821C28.4985 25.3816 29.4284 22.8373 29.428 20.2183C29.428 17.4962 28.4334 14.877 26.6275 12.8439C26.4692 12.6657 26.244 12.5605 26.0058 12.5537C25.7549 12.5457 25.5362 12.6389 25.3679 12.808L25.2544 12.9217C24.9321 13.2453 24.9167 13.7636 25.2196 14.106C26.7136 15.7926 27.5366 17.9634 27.5366 20.2183C27.5366 22.3861 26.7678 24.4938 25.3724 26.1534C25.0836 26.497 25.1052 27.0047 25.4228 27.3221L25.5364 27.4358C25.6992 27.5986 25.9192 27.6891 26.1483 27.6891C26.1545 27.6891 26.1606 27.689 26.1666 27.6889C26.1727 27.6887 26.1786 27.6885 26.1846 27.6883ZM19.9072 26.0602C19.9072 26.3959 19.7133 26.7008 19.4098 26.8431C19.2925 26.8986 19.1667 26.9255 19.0418 26.9255C18.844 26.9255 18.648 26.8575 18.4897 26.7262L13.7595 22.8066H11.2402C10.7625 22.807 10.375 22.4193 10.375 21.9416V18.4944C10.375 18.0164 10.7625 17.6289 11.2402 17.6289H13.7597L18.4899 13.7093C18.7483 13.4951 19.1067 13.4494 19.41 13.5928C19.7133 13.7351 19.9074 14.0402 19.9074 14.3757L19.9072 26.0602ZM23.2323 24.7082C23.2112 24.7097 23.191 24.7105 23.1701 24.7105C22.9415 24.7105 22.7212 24.6202 22.5584 24.4572L22.4427 24.341C22.1392 24.0382 22.1035 23.5583 22.3591 23.2139C23.0071 22.3403 23.3491 21.3047 23.3491 20.2183C23.3491 19.0498 22.9608 17.9537 22.226 17.0486C21.9463 16.7045 21.9721 16.2048 22.2856 15.8915L22.4011 15.7758C22.5739 15.603 22.8055 15.5088 23.0562 15.5237C23.3003 15.536 23.5282 15.6509 23.6831 15.8401C24.7023 17.0873 25.2407 18.6015 25.2407 20.2185C25.2407 21.7245 24.7645 23.158 23.8635 24.3634C23.713 24.5643 23.4828 24.6904 23.2323 24.7082Z" fill="white"/>
<rect x="12.9141" y="11.5" width="22" height="2" rx="1" transform="rotate(45 12.9141 11.5)" fill="white"/>
</svg>
