<svg width="22" height="20" viewBox="0 0 22 20" fill="none" xmlns="http://www.w3.org/2000/svg">
<path fill-rule="evenodd" clip-rule="evenodd" d="M19.5171 0H5.90009C4.64926 0 3.63064 1.01862 3.63064 2.26961V12.2553C3.63064 13.5063 4.64926 14.5249 5.90009 14.5249H19.5171C20.7681 14.5249 21.7867 13.5063 21.7867 12.2553V2.26961C21.7867 1.01862 20.7681 0 19.5171 0ZM5.90009 1.81566H19.5171C19.7678 1.81566 19.9711 2.01895 19.9711 2.26961V8.7141L17.1034 5.36785C16.7992 5.01114 16.3589 4.82048 15.886 4.80967C15.4157 4.81233 14.9746 5.02111 14.6732 5.38248L11.3015 9.42935L10.2031 8.33361C9.58227 7.71277 8.5718 7.71277 7.95179 8.33361L5.4463 10.8383V2.26961C5.4463 2.01895 5.64959 1.81566 5.90009 1.81566ZM8.16971 6.35472C9.17104 6.35472 9.9852 5.54039 9.9852 4.53906C9.9852 3.53773 9.17104 2.7234 8.16971 2.7234C7.16838 2.7234 6.35405 3.53773 6.35405 4.53906C6.35405 5.54039 7.16838 6.35472 8.16971 6.35472ZM5.6732 15.8866C4.21991 15.8866 2.92719 14.9561 2.45777 13.5708L2.42602 13.4664C2.31532 13.0996 2.26894 12.7911 2.26894 12.4824V6.29289L0.0666476 13.6443C-0.216597 14.7256 0.428848 15.8466 1.51179 16.1453L15.5492 19.9046C15.7244 19.95 15.8996 19.9717 16.0721 19.9717C16.9762 19.9717 17.8024 19.3717 18.0339 18.4874L18.8517 15.8866H5.6732Z" fill="#6063EB"/>
</svg>
