<svg width="40" height="40" viewBox="0 0 40 40" fill="none" xmlns="http://www.w3.org/2000/svg">
<rect opacity="0.3" width="40" height="40" rx="17" fill="black"/>
<path d="M29.1412 15.7182C28.957 15.6042 28.7269 15.5938 28.5331 15.6906L24.4375 17.7388V16.25C24.4375 15.2145 23.598 14.375 22.5625 14.375H13.8125C12.777 14.375 11.9375 15.2145 11.9375 16.25V23.75C11.9375 24.7855 12.777 25.625 13.8125 25.625H22.5625C23.598 25.625 24.4375 24.7855 24.4375 23.75V22.2612L28.5331 24.3125C28.8419 24.4668 29.2173 24.3416 29.3716 24.0328C29.4155 23.945 29.4381 23.8481 29.4375 23.75V16.25C29.4376 16.0333 29.3255 15.8321 29.1412 15.7182Z" fill="white"/>
<rect x="12.5605" y="10.2929" width="23.5" height="2.5" rx="1.25" transform="rotate(45 12.5605 10.2929)" fill="white" stroke="#4C4FBC" stroke-width="1.5"/>
</svg>
